# Blender v2.78 (sub 0) OBJ File: ''
# www.blender.org
mtllib trunk.mtl
o Cylinder.012_Cylinder.003
v -0.114186 -1.284882 -0.184126
v 0.098539 -1.284882 -0.238797
v 0.216270 -1.284882 -0.053378
v 0.076306 -1.284882 0.115889
v -0.127926 -1.284882 0.035081
v -0.114815 0.939715 -0.057802
v 0.008317 0.939204 -0.111723
v 0.075628 0.977939 -0.005712
v -0.005904 0.996552 0.113728
v -0.122672 0.939715 0.067528
v 0.029801 -1.284882 -0.065066
v 0.079724 -0.102306 -0.198451
v -0.086228 -0.169669 -0.161009
v 0.176684 -0.128036 -0.051560
v 0.070656 -0.211301 0.076666
v -0.091833 -0.237031 0.009023
v 0.021202 0.738685 -0.110655
v -0.109172 0.795586 -0.078176
v 0.094366 0.772341 0.003427
v 0.009210 0.717168 0.106411
v -0.116584 0.782288 0.055978
v 0.182128 0.881954 -0.073626
v 0.139338 0.887033 -0.185684
v 0.161880 0.986912 -0.060101
v 0.124943 0.986912 -0.164089
v -0.145580 1.457055 0.050955
v -0.150082 1.457055 0.122788
v -0.083157 1.457055 0.149268
v -0.037292 1.457055 0.093800
v -0.075871 1.457055 0.033040
v 0.239115 1.143997 -0.168556
v 0.281157 1.143997 -0.126609
v 0.247793 1.068346 -0.181575
v 0.293364 1.065283 -0.134763
v 0.066103 0.093442 -0.178016
v -0.091569 0.038663 -0.141729
v 0.157524 0.072518 -0.038761
v 0.056354 0.004808 0.083589
v -0.097594 -0.016115 0.019952
v -0.039091 0.209429 0.261232
v -0.136917 0.202108 0.212386
v -0.162865 0.028793 0.245418
v -0.059164 0.039473 0.296644
v -0.177460 0.376741 0.378314
v -0.101675 0.384547 0.415750
v -0.087006 0.508750 0.389871
v -0.158497 0.503400 0.354174
v -0.069762 0.147764 0.340376
v -0.173463 0.137084 0.289151
v -0.049689 0.317719 0.304965
v -0.147515 0.310399 0.256118
v 0.008759 0.279987 0.342664
v 0.019925 0.374534 0.322965
v 0.025821 0.314291 0.298636
v 0.014655 0.219745 0.318336
v -0.255385 0.866008 0.073342
v -0.251490 0.872997 0.002839
v -0.258584 1.015504 0.079412
v -0.254456 1.015504 0.013546
v -0.152052 1.528270 0.059746
v -0.090792 1.528270 0.044002
v -0.056888 1.528270 0.097399
v -0.097194 1.528270 0.146144
v -0.156009 1.528270 0.122873
v -0.110587 1.528270 0.094033
v 0.138163 0.172500 -0.204637
v 0.171688 0.154050 -0.138870
v 0.182262 -0.022791 -0.147244
v 0.146639 -0.000103 -0.216574
vn 0.0000 -1.0000 0.0000
vn -0.2488 0.0263 -0.9682
vn 0.8438 0.0297 -0.5358
vn 0.7704 0.0273 0.6370
vn -0.3677 0.0358 0.9293
vn -0.9994 0.0255 -0.0228
vn -0.2504 -0.0212 -0.9679
vn 0.7640 0.0244 0.6448
vn -0.3918 -0.0453 0.9189
vn 0.6762 -0.7009 -0.2269
vn 0.5338 -0.0060 0.8456
vn -0.5023 -0.0369 -0.8639
vn -0.3304 0.9365 0.1174
vn -0.9970 -0.0461 -0.0625
vn -0.3155 -0.1173 0.9417
vn 0.7682 0.0798 0.6352
vn 0.8063 0.2964 -0.5119
vn -0.3934 0.1877 -0.9000
vn -0.7740 0.5704 0.2749
vn -0.2486 0.1703 -0.9535
vn 0.4993 -0.0123 0.8663
vn 0.5793 -0.5516 -0.6001
vn 0.7106 0.1806 -0.6800
vn -0.2512 0.0828 -0.9644
vn -0.2509 0.0832 -0.9644
vn 0.8383 0.1140 -0.5332
vn 0.7608 0.0296 0.6483
vn 0.7622 0.0297 0.6467
vn -0.3751 -0.0545 0.9254
vn -0.9982 -0.0184 -0.0570
vn -0.9988 -0.0215 -0.0445
vn 0.2763 0.7003 -0.6582
vn -0.9522 0.0867 -0.2929
vn 0.8812 0.0432 0.4708
vn -0.1873 -0.6802 0.7087
vn -0.4499 0.2317 0.8625
vn -0.3784 -0.3782 0.8449
vn -0.3913 -0.3266 0.8603
vn 0.9014 -0.0163 0.4328
vn -0.9212 0.0648 -0.3837
vn -0.9551 0.0892 -0.2825
vn 0.3910 0.3773 -0.8395
vn 0.3755 0.4367 -0.8175
vn -0.4168 0.2323 0.8788
vn -0.0610 0.3686 -0.9276
vn 0.4666 -0.2916 0.8350
vn 0.7298 -0.2210 -0.6470
vn 0.9422 -0.0420 0.3324
vn -0.5235 -0.8446 -0.1126
vn 0.0823 -0.0698 0.9942
vn -0.4287 0.0588 -0.9015
vn 0.4888 0.8718 0.0306
vn -0.9979 -0.0188 -0.0625
vn -0.2478 0.0965 -0.9640
vn 0.8172 0.2511 -0.5189
vn 0.7585 0.1770 0.6272
vn -0.3677 -0.0317 0.9294
vn -0.9946 -0.0827 -0.0623
vn 0.0000 1.0000 0.0000
vn -0.5639 0.6744 0.4766
vn 0.9824 0.0502 0.1799
vn -0.3616 0.0719 -0.9296
vn 0.6686 -0.5194 -0.5323
vn 0.8967 0.0743 -0.4364
vn -0.2314 0.0295 -0.9724
vn 0.8367 0.0320 -0.5467
vn 0.7624 0.0251 0.6467
vn -0.3884 0.0316 0.9210
vn -0.9975 0.0328 -0.0625
vn -0.3982 0.1131 -0.9103
vn 0.8290 0.1000 0.5503
vn -0.3320 -0.0818 0.9397
vn 0.6729 -0.6814 -0.2878
vn 0.5916 0.0895 0.8012
vn -0.4489 0.1266 -0.8846
vn -0.2274 0.9523 -0.2036
vn -0.3647 -0.1323 0.9217
vn 0.8290 0.0805 0.5534
vn 0.7578 0.2870 -0.5860
vn -0.2446 0.1855 -0.9517
vn -0.5419 0.6414 0.5431
vn -0.2295 0.1394 -0.9633
vn 0.5005 -0.0150 0.8656
vn 0.8128 -0.4787 -0.3321
vn 0.6922 0.1988 -0.6938
vn -0.2092 0.0770 -0.9748
vn 0.8221 0.1079 -0.5591
vn 0.7617 0.0315 0.6472
vn 0.7624 0.0298 0.6464
vn -0.3942 -0.0508 0.9176
vn -0.9988 -0.0217 -0.0446
vn -0.9988 -0.0239 -0.0424
vn 0.2050 0.6679 -0.7155
vn -0.9611 -0.0114 -0.2760
vn 0.8788 -0.0044 0.4772
vn -0.2525 -0.7086 0.6589
vn -0.4483 0.2328 0.8630
vn 0.0654 -0.0391 0.9971
vn -0.4468 0.1080 -0.8881
vn -0.9982 -0.0165 -0.0568
vn -0.5640 0.6776 0.4721
vn 0.9850 0.0845 0.1504
vn -0.3888 0.0445 -0.9202
vn 0.6705 -0.5309 -0.5183
vn 0.8967 0.0742 -0.4363
usemtl winter_wood
s off
f 11//1 1//1 2//1
f 11//1 2//1 3//1
f 11//1 3//1 4//1
f 11//1 4//1 5//1
f 5//1 1//1 11//1
f 13//2 2//2 1//2
f 2//3 14//3 3//3
f 3//4 15//4 4//4
f 4//5 16//5 5//5
f 1//6 16//6 13//6
f 18//7 7//7 17//7
f 19//8 9//8 20//8
f 9//9 21//9 20//9
f 17//10 22//10 19//10
f 8//11 22//11 24//11
f 7//12 23//12 17//12
f 7//13 24//13 25//13
f 10//14 26//14 6//14
f 9//15 27//15 10//15
f 9//16 29//16 28//16
f 8//17 30//17 29//17
f 6//18 30//18 7//18
f 24//19 31//19 25//19
f 25//20 33//20 23//20
f 24//21 34//21 32//21
f 22//22 33//22 34//22
f 33//23 32//23 34//23
f 36//24 12//24 13//24
f 36//25 17//25 35//25
f 17//26 37//26 35//26
f 14//27 38//27 15//27
f 37//28 20//28 38//28
f 20//29 39//29 38//29
f 36//30 21//30 18//30
f 13//31 39//31 36//31
f 38//32 41//32 40//32
f 39//33 42//33 41//33
f 38//34 43//34 15//34
f 15//35 42//35 16//35
f 45//36 47//36 44//36
f 43//37 49//37 42//37
f 48//38 44//38 49//38
f 50//39 45//39 48//39
f 49//40 41//40 42//40
f 44//41 51//41 49//41
f 51//42 40//42 41//42
f 47//43 50//43 51//43
f 50//44 52//44 53//44
f 50//45 54//45 40//45
f 48//46 55//46 52//46
f 40//47 55//47 43//47
f 54//48 52//48 55//48
f 21//49 57//49 18//49
f 10//50 56//50 21//50
f 6//51 57//51 59//51
f 10//52 59//52 58//52
f 59//53 56//53 58//53
f 26//54 61//54 30//54
f 30//55 62//55 29//55
f 28//56 62//56 63//56
f 27//57 63//57 64//57
f 27//58 60//58 26//58
f 65//59 61//59 60//59
f 65//59 62//59 61//59
f 65//59 63//59 62//59
f 65//59 64//59 63//59
f 65//59 60//59 64//59
f 35//60 67//60 66//60
f 37//61 68//61 67//61
f 35//62 69//62 12//62
f 12//63 68//63 14//63
f 69//64 67//64 68//64
f 13//65 12//65 2//65
f 2//66 12//66 14//66
f 3//67 14//67 15//67
f 4//68 15//68 16//68
f 1//69 5//69 16//69
f 18//70 6//70 7//70
f 19//71 8//71 9//71
f 9//72 10//72 21//72
f 17//73 23//73 22//73
f 8//74 19//74 22//74
f 7//75 25//75 23//75
f 7//76 8//76 24//76
f 10//14 27//14 26//14
f 9//77 28//77 27//77
f 9//78 8//78 29//78
f 8//79 7//79 30//79
f 6//80 26//80 30//80
f 24//81 32//81 31//81
f 25//82 31//82 33//82
f 24//83 22//83 34//83
f 22//84 23//84 33//84
f 33//85 31//85 32//85
f 36//25 35//25 12//25
f 36//86 18//86 17//86
f 17//87 19//87 37//87
f 14//88 37//88 38//88
f 37//89 19//89 20//89
f 20//90 21//90 39//90
f 36//91 39//91 21//91
f 13//92 16//92 39//92
f 38//93 39//93 41//93
f 39//94 16//94 42//94
f 38//95 40//95 43//95
f 15//96 43//96 42//96
f 45//97 46//97 47//97
f 43//37 48//37 49//37
f 48//38 45//38 44//38
f 50//39 46//39 45//39
f 49//40 51//40 41//40
f 44//41 47//41 51//41
f 51//42 50//42 40//42
f 47//43 46//43 50//43
f 50//44 48//44 52//44
f 50//45 53//45 54//45
f 48//46 43//46 55//46
f 40//47 54//47 55//47
f 54//48 53//48 52//48
f 21//49 56//49 57//49
f 10//98 58//98 56//98
f 6//99 18//99 57//99
f 10//52 6//52 59//52
f 59//100 57//100 56//100
f 26//54 60//54 61//54
f 30//55 61//55 62//55
f 28//56 29//56 62//56
f 27//57 28//57 63//57
f 27//58 64//58 60//58
f 35//101 37//101 67//101
f 37//102 14//102 68//102
f 35//103 66//103 69//103
f 12//104 69//104 68//104
f 69//105 66//105 67//105
