# Blender 3.6.2
# www.blender.org
mtllib asteroid_small.mtl
o Cone
v 0.016831 -0.497550 -0.843147
v 0.824195 -0.483528 0.311262
v 0.152309 -0.573662 0.957957
v -0.985848 -0.544798 -0.252501
v -0.228014 0.518001 -0.176389
vn 0.7072 0.4992 -0.5007
vn 0.4301 0.7182 0.5470
vn 0.0213 -0.9988 -0.0438
vn -0.6553 0.4224 0.6262
vn -0.4795 0.3979 -0.7821
vn 0.0867 -0.9950 -0.0486
vt 0.250000 0.490000
vt 0.250000 0.250000
vt 0.490000 0.250000
vt 0.250000 0.010000
vt 0.750000 0.490000
vt 0.750000 0.010000
vt 0.510000 0.250000
vt 0.010000 0.250000
vt 0.990000 0.250000
s 0
usemtl Material.001
f 1/1/1 5/2/1 2/3/1
f 2/3/2 5/2/2 3/4/2
f 1/5/3 3/6/3 4/7/3
f 3/4/4 5/2/4 4/8/4
f 4/8/5 5/2/5 1/1/5
f 1/5/6 2/9/6 3/6/6
