# Blender 3.6.2
# www.blender.org
mtllib ship.mtl
o Cone
v 0.000000 0.374767 0.366948
v -0.866025 -0.243226 0.949394
v 0.866026 -0.243226 0.949393
v -0.000000 -0.019732 -0.407803
vn -0.6853 0.6489 -0.3304
vn -0.0000 0.6859 0.7277
vn -0.0000 -0.9867 -0.1625
vn 0.6853 0.6489 -0.3304
vt 0.250000 0.490000
vt 0.250000 0.336471
vt 0.457846 0.130000
vt 0.750000 0.490000
vt 0.957846 0.130000
vt 0.542154 0.130000
vt 0.042154 0.130000
s 0
usemtl Material.001
f 1/1/1 4/2/1 2/3/1
f 2/3/3 4/2/3 3/7/3
f 3/7/4 4/2/4 1/1/4
usemtl Material.002
f 1/4/2 2/5/2 3/6/2
