# Blender v2.78 (sub 0) OBJ File: 'board.blend'
# www.blender.org
mtllib board.mtl
o board
v 0.000000 -0.250000 -15.000000
v 0.000000 0.250000 -15.000000
v 2.926355 -0.250000 -14.711779
v 2.926355 0.250000 -14.711779
v 5.740252 -0.250000 -13.858192
v 5.740252 0.250000 -13.858192
v 8.333553 -0.250000 -12.472044
v 8.333553 0.250000 -12.472044
v 10.606602 -0.250000 -10.606602
v 10.606602 0.250000 -10.606602
v 12.472045 -0.250000 -8.333552
v 12.472045 0.250000 -8.333552
v 13.858192 -0.250000 -5.740252
v 13.858192 0.250000 -5.740252
v 14.711779 -0.250000 -2.926355
v 14.711779 0.250000 -2.926355
v 15.000000 -0.250000 -0.000001
v 15.000000 0.250000 -0.000001
v 14.711780 -0.250000 2.926353
v 14.711780 0.250000 2.926353
v 13.858193 -0.250000 5.740249
v 13.858193 0.250000 5.740249
v 12.472045 -0.250000 8.333552
v 12.472045 0.250000 8.333552
v 10.606602 -0.250000 10.606602
v 10.606602 0.250000 10.606602
v 8.333552 -0.250000 12.472045
v 8.333552 0.250000 12.472045
v 5.740249 -0.250000 13.858194
v 5.740249 0.250000 13.858194
v 2.926351 -0.250000 14.711780
v 2.926351 0.250000 14.711780
v -0.000005 -0.250000 15.000000
v -0.000005 0.250000 15.000000
v -2.926361 -0.250000 14.711778
v -2.926361 0.250000 14.711778
v -5.740258 -0.250000 13.858190
v -5.740258 0.250000 13.858190
v -8.333561 -0.250000 12.472039
v -8.333561 0.250000 12.472039
v -10.606608 -0.250000 10.606595
v -10.606608 0.250000 10.606595
v -12.472050 -0.250000 8.333545
v -12.472050 0.250000 8.333545
v -13.858198 -0.250000 5.740240
v -13.858198 0.250000 5.740240
v -14.711782 -0.250000 2.926342
v -14.711782 0.250000 2.926342
v -15.000000 -0.250000 -0.000014
v -15.000000 0.250000 -0.000014
v -14.711776 -0.250000 -2.926370
v -14.711776 0.250000 -2.926370
v -13.858187 -0.250000 -5.740267
v -13.858187 0.250000 -5.740267
v -12.472034 -0.250000 -8.333569
v -12.472034 0.250000 -8.333569
v -10.606588 -0.250000 -10.606615
v -10.606588 0.250000 -10.606615
v -8.333537 -0.250000 -12.472055
v -8.333537 0.250000 -12.472055
v -5.740232 -0.250000 -13.858202
v -5.740232 0.250000 -13.858202
v -2.926332 -0.250000 -14.711783
v -2.926332 0.250000 -14.711783
vn 0.0000 1.0000 -0.0000
vn 0.0000 -1.0000 -0.0000
vn 0.0980 0.0000 -0.9952
vn 0.2903 0.0000 -0.9569
vn 0.4714 0.0000 -0.8819
vn 0.6344 0.0000 -0.7730
vn 0.7730 0.0000 -0.6344
vn 0.8819 0.0000 -0.4714
vn 0.9569 0.0000 -0.2903
vn 0.9952 0.0000 -0.0980
vn 0.9952 0.0000 0.0980
vn 0.9569 0.0000 0.2903
vn 0.8819 0.0000 0.4714
vn 0.7730 0.0000 0.6344
vn 0.6344 0.0000 0.7730
vn 0.4714 0.0000 0.8819
vn 0.2903 0.0000 0.9569
vn 0.0980 0.0000 0.9952
vn -0.0980 0.0000 0.9952
vn -0.2903 0.0000 0.9569
vn -0.4714 0.0000 0.8819
vn -0.6344 0.0000 0.7730
vn -0.7730 0.0000 0.6344
vn -0.8819 0.0000 0.4714
vn -0.9569 0.0000 0.2903
vn -0.9952 0.0000 0.0980
vn -0.9952 0.0000 -0.0980
vn -0.9569 0.0000 -0.2903
vn -0.8819 0.0000 -0.4714
vn -0.7730 0.0000 -0.6344
vn -0.6344 0.0000 -0.7730
vn -0.4714 0.0000 -0.8819
vn -0.2903 0.0000 -0.9569
vn -0.0980 0.0000 -0.9952
usemtl Material
s off
f 4//1 2//1 64//1 62//1 60//1 58//1 56//1 54//1 52//1 50//1 48//1 46//1 44//1 42//1 40//1 38//1 36//1 34//1 32//1 30//1 28//1 26//1 24//1 22//1 20//1 18//1 16//1 14//1 12//1 10//1 8//1 6//1
usemtl Material.001
f 1//2 3//2 5//2 7//2 9//2 11//2 13//2 15//2 17//2 19//2 21//2 23//2 25//2 27//2 29//2 31//2 33//2 35//2 37//2 39//2 41//2 43//2 45//2 47//2 49//2 51//2 53//2 55//2 57//2 59//2 61//2 63//2
usemtl Material.002
f 1//3 2//3 4//3 3//3
f 3//4 4//4 6//4 5//4
f 5//5 6//5 8//5 7//5
f 7//6 8//6 10//6 9//6
f 9//7 10//7 12//7 11//7
f 11//8 12//8 14//8 13//8
f 13//9 14//9 16//9 15//9
f 15//10 16//10 18//10 17//10
f 17//11 18//11 20//11 19//11
f 19//12 20//12 22//12 21//12
f 21//13 22//13 24//13 23//13
f 23//14 24//14 26//14 25//14
f 25//15 26//15 28//15 27//15
f 27//16 28//16 30//16 29//16
f 29//17 30//17 32//17 31//17
f 31//18 32//18 34//18 33//18
f 33//19 34//19 36//19 35//19
f 35//20 36//20 38//20 37//20
f 37//21 38//21 40//21 39//21
f 39//22 40//22 42//22 41//22
f 41//23 42//23 44//23 43//23
f 43//24 44//24 46//24 45//24
f 45//25 46//25 48//25 47//25
f 47//26 48//26 50//26 49//26
f 49//27 50//27 52//27 51//27
f 51//28 52//28 54//28 53//28
f 53//29 54//29 56//29 55//29
f 55//30 56//30 58//30 57//30
f 57//31 58//31 60//31 59//31
f 59//32 60//32 62//32 61//32
f 61//33 62//33 64//33 63//33
f 63//34 64//34 2//34 1//34
