# Blender v2.78 (sub 0) OBJ File: 'color-cube.blend'
# www.blender.org
mtllib color-cube.mtl
o cube
v 0.500000 -0.500000 -0.500000
v 0.500000 -0.500000 0.500000
v -0.500000 -0.500000 0.500000
v -0.500000 -0.500000 -0.500000
v 0.500000 0.500000 -0.500000
v 0.500000 0.500000 0.500000
v -0.500000 0.500000 0.500000
v -0.500000 0.500000 -0.500000
vn 1.0000 -0.0000 0.0000
vn 0.0000 0.0000 -1.0000
vn -1.0000 -0.0000 -0.0000
vn 0.0000 -0.0000 1.0000
vn 0.0000 1.0000 0.0000
vn 0.0000 -1.0000 0.0000
usemtl red
s off
f 5//1 2//1 1//1
f 5//1 6//1 2//1
usemtl back
f 1//2 8//2 5//2
f 1//2 4//2 8//2
usemtl left
f 3//3 8//3 4//3
f 3//3 7//3 8//3
usemtl front
f 6//4 3//4 2//4
f 6//4 7//4 3//4
usemtl top
f 8//5 6//5 5//5
f 8//5 7//5 6//5
usemtl bottom
f 2//6 4//6 1//6
f 2//6 3//6 4//6
