# Blender v2.78 (sub 0) OBJ File: ''
# www.blender.org
mtllib cube-blue-red.mtl
o Cube
v 1.000000 -1.000000 -1.000000
v 1.000000 -1.000000 1.000000
v -1.000000 -1.000000 1.000000
v -1.000000 -1.000000 -1.000000
v 1.000000 1.000000 -0.999999
v 0.999999 1.000000 1.000001
v -1.000000 1.000000 1.000000
v -1.000000 1.000000 -1.000000
vn 0.0000 -1.0000 0.0000
vn 1.0000 -0.0000 0.0000
vn 0.0000 -0.0000 1.0000
vn 0.0000 0.0000 -1.0000
vn 0.0000 1.0000 0.0000
vn -1.0000 -0.0000 -0.0000
usemtl red
s off
f 2//1 4//1 1//1
f 5//2 2//2 1//2
f 6//3 3//3 2//3
f 1//4 8//4 5//4
f 2//1 3//1 4//1
f 5//2 6//2 2//2
f 6//3 7//3 3//3
f 1//4 4//4 8//4
usemtl blue
f 8//5 6//5 5//5
f 3//6 8//6 4//6
f 8//5 7//5 6//5
f 3//6 7//6 8//6
