# Blender v2.78 (sub 0) OBJ File: 'cubo.blend'
# www.blender.org
mtllib cubo.mtl
o Cube
v 1.000000 -1.000000 -1.000000
v 1.000000 -1.000000 1.000000
v -1.000000 -1.000000 1.000000
v -1.000000 -1.000000 -1.000000
v 1.000000 1.000000 -0.999999
v 0.999999 1.000000 1.000001
v -1.000000 1.000000 1.000000
v -1.000000 1.000000 -1.000000
vt 0.0000 0.0000
vt 0.0000 0.0000
vt 0.0000 0.0000
vt 0.0000 0.0000
vt 0.0000 0.0000
vt 0.0000 0.0000
vt 0.0000 0.0000
vt 0.0000 0.0000
vt 1.0000 0.0000
vt 0.0000 1.0000
vt 1.0000 1.0000
vt 0.0001 0.9999
vt 0.9999 0.0001
vt 0.9999 0.9999
vt 0.0001 0.0001
vn 1.0000 -0.0000 0.0000
vn 0.0000 -0.0000 1.0000
vn 0.0000 0.0000 -1.0000
vn -1.0000 -0.0000 -0.0000
vn 0.0000 1.0000 0.0000
vn 0.0000 -1.0000 0.0000
usemtl red
s off
f 5/1/1 2/2/1 1/3/1
f 6/4/2 3/5/2 2/2/2
f 1/3/3 8/6/3 5/1/3
f 5/1/1 6/4/1 2/2/1
f 6/4/2 7/7/2 3/5/2
f 1/3/3 4/8/3 8/6/3
usemtl blue
f 3/5/4 8/6/4 4/8/4
f 3/5/4 7/7/4 8/6/4
usemtl texture
f 8/9/5 6/10/5 5/1/5
f 8/9/5 7/11/5 6/10/5
usemtl texture2
f 2/12/6 4/13/6 1/14/6
f 2/12/6 3/15/6 4/13/6
