# Blender v2.78 (sub 0) OBJ File: 'grid.blend'
# www.blender.org
mtllib grid.mtl
o Grid_Grid.007
v -8.000000 0.000000 8.000000
v -6.000000 0.000000 8.000000
v -4.000000 0.000000 8.000000
v -2.000000 0.000000 8.000000
v 0.000000 0.000000 8.000000
v 2.000000 0.000000 8.000000
v 4.000000 0.000000 8.000000
v 6.000000 0.000000 8.000000
v 8.000000 0.000000 8.000000
v -8.000000 0.000000 6.000000
v -6.000000 0.000000 6.000000
v -4.000000 0.000000 6.000000
v -2.000000 0.000000 6.000000
v 0.000000 0.000000 6.000000
v 2.000000 0.000000 6.000000
v 4.000000 0.000000 6.000000
v 6.000000 0.000000 6.000000
v 8.000000 0.000000 6.000000
v -8.000000 0.000000 4.000000
v -6.000000 0.000000 4.000000
v -4.000000 0.000000 4.000000
v -2.000000 0.000000 4.000000
v 0.000000 0.000000 4.000000
v 2.000000 0.000000 4.000000
v 4.000000 0.000000 4.000000
v 6.000000 0.000000 4.000000
v 8.000000 0.000000 4.000000
v -8.000000 0.000000 2.000000
v -6.000000 0.000000 2.000000
v -4.000000 0.000000 2.000000
v -2.000000 0.000000 2.000000
v 0.000000 0.000000 2.000000
v 2.000000 0.000000 2.000000
v 4.000000 0.000000 2.000000
v 6.000000 0.000000 2.000000
v 8.000000 0.000000 2.000000
v -8.000000 0.000000 0.000000
v -6.000000 0.000000 0.000000
v -4.000000 0.000000 0.000000
v -2.000000 0.000000 0.000000
v 0.000000 0.000000 0.000000
v 2.000000 0.000000 0.000000
v 4.000000 0.000000 0.000000
v 6.000000 0.000000 0.000000
v 8.000000 0.000000 0.000000
v -8.000000 0.000000 -2.000000
v -6.000000 0.000000 -2.000000
v -4.000000 0.000000 -2.000000
v -2.000000 0.000000 -2.000000
v 0.000000 0.000000 -2.000000
v 2.000000 0.000000 -2.000000
v 4.000000 0.000000 -2.000000
v 6.000000 0.000000 -2.000000
v 8.000000 0.000000 -2.000000
v -8.000000 0.000000 -4.000000
v -6.000000 0.000000 -4.000000
v -4.000000 0.000000 -4.000000
v -2.000000 0.000000 -4.000000
v 0.000000 0.000000 -4.000000
v 2.000000 0.000000 -4.000000
v 4.000000 0.000000 -4.000000
v 6.000000 0.000000 -4.000000
v 8.000000 0.000000 -4.000000
v -8.000000 0.000000 -6.000000
v -6.000000 0.000000 -6.000000
v -4.000000 0.000000 -6.000000
v -2.000000 0.000000 -6.000000
v 0.000000 0.000000 -6.000000
v 2.000000 0.000000 -6.000000
v 4.000000 0.000000 -6.000000
v 6.000000 0.000000 -6.000000
v 8.000000 0.000000 -6.000000
v -8.000000 0.000000 -8.000000
v -6.000000 0.000000 -8.000000
v -4.000000 0.000000 -8.000000
v -2.000000 0.000000 -8.000000
v 0.000000 0.000000 -8.000000
v 2.000000 0.000000 -8.000000
v 4.000000 0.000000 -8.000000
v 6.000000 0.000000 -8.000000
v 8.000000 0.000000 -8.000000
vt 0.2500 0.1250
vt 0.1250 0.0000
vt 0.2500 0.0000
vt 0.5000 0.1250
vt 0.3750 0.0000
vt 0.5000 0.0000
vt 0.7500 0.1250
vt 0.6250 0.0000
vt 0.7500 0.0000
vt 1.0000 0.1250
vt 0.8750 0.0000
vt 1.0000 0.0000
vt 0.1250 0.2500
vt 0.0000 0.1250
vt 0.1250 0.1250
vt 0.3750 0.2500
vt 0.2500 0.1250
vt 0.3750 0.1250
vt 0.6250 0.2500
vt 0.5000 0.1250
vt 0.6250 0.1250
vt 0.8750 0.2500
vt 0.7500 0.1250
vt 0.8750 0.1250
vt 0.2500 0.3750
vt 0.1250 0.2500
vt 0.2500 0.2500
vt 0.5000 0.3750
vt 0.3750 0.2500
vt 0.5000 0.2500
vt 0.7500 0.3750
vt 0.6250 0.2500
vt 0.7500 0.2500
vt 1.0000 0.3750
vt 0.8750 0.2500
vt 1.0000 0.2500
vt 0.1250 0.5000
vt 0.0000 0.3750
vt 0.1250 0.3750
vt 0.3750 0.5000
vt 0.2500 0.3750
vt 0.3750 0.3750
vt 0.6250 0.5000
vt 0.5000 0.3750
vt 0.6250 0.3750
vt 0.8750 0.5000
vt 0.7500 0.3750
vt 0.8750 0.3750
vt 0.2500 0.6250
vt 0.1250 0.5000
vt 0.2500 0.5000
vt 0.5000 0.6250
vt 0.3750 0.5000
vt 0.5000 0.5000
vt 0.7500 0.6250
vt 0.6250 0.5000
vt 0.7500 0.5000
vt 1.0000 0.6250
vt 0.8750 0.5000
vt 1.0000 0.5000
vt 0.1250 0.7500
vt 0.0000 0.6250
vt 0.1250 0.6250
vt 0.3750 0.7500
vt 0.2500 0.6250
vt 0.3750 0.6250
vt 0.6250 0.7500
vt 0.5000 0.6250
vt 0.6250 0.6250
vt 0.8750 0.7500
vt 0.7500 0.6250
vt 0.8750 0.6250
vt 0.2500 0.8750
vt 0.1250 0.7500
vt 0.2500 0.7500
vt 0.5000 0.8750
vt 0.3750 0.7500
vt 0.5000 0.7500
vt 0.7500 0.8750
vt 0.6250 0.7500
vt 0.7500 0.7500
vt 1.0000 0.8750
vt 0.8750 0.7500
vt 1.0000 0.7500
vt 0.1250 1.0000
vt 0.0000 0.8750
vt 0.1250 0.8750
vt 0.3750 1.0000
vt 0.2500 0.8750
vt 0.3750 0.8750
vt 0.6250 1.0000
vt 0.5000 0.8750
vt 0.6250 0.8750
vt 0.8750 1.0000
vt 0.7500 0.8750
vt 0.8750 0.8750
vt 0.1250 0.1250
vt 0.3750 0.1250
vt 0.6250 0.1250
vt 0.8750 0.1250
vt 0.0000 0.2500
vt 0.2500 0.2500
vt 0.5000 0.2500
vt 0.7500 0.2500
vt 0.1250 0.3750
vt 0.3750 0.3750
vt 0.6250 0.3750
vt 0.8750 0.3750
vt 0.0000 0.5000
vt 0.2500 0.5000
vt 0.5000 0.5000
vt 0.7500 0.5000
vt 0.1250 0.6250
vt 0.3750 0.6250
vt 0.6250 0.6250
vt 0.8750 0.6250
vt 0.0000 0.7500
vt 0.2500 0.7500
vt 0.5000 0.7500
vt 0.7500 0.7500
vt 0.1250 0.8750
vt 0.3750 0.8750
vt 0.6250 0.8750
vt 0.8750 0.8750
vt 0.0000 1.0000
vt 0.2500 1.0000
vt 0.5000 1.0000
vt 0.7500 1.0000
vt 0.1250 0.1250
vt 0.0000 0.0000
vt 0.1250 0.0000
vt 0.3750 0.1250
vt 0.2500 0.0000
vt 0.3750 0.0000
vt 0.6250 0.1250
vt 0.5000 0.0000
vt 0.6250 0.0000
vt 0.8750 0.1250
vt 0.7500 0.0000
vt 0.8750 0.0000
vt 0.2500 0.2500
vt 0.1250 0.1250
vt 0.2500 0.1250
vt 0.5000 0.2500
vt 0.3750 0.1250
vt 0.5000 0.1250
vt 0.7500 0.2500
vt 0.6250 0.1250
vt 0.7500 0.1250
vt 1.0000 0.2500
vt 0.8750 0.1250
vt 1.0000 0.1250
vt 0.1250 0.3750
vt 0.0000 0.2500
vt 0.1250 0.2500
vt 0.3750 0.3750
vt 0.2500 0.2500
vt 0.3750 0.2500
vt 0.6250 0.3750
vt 0.5000 0.2500
vt 0.6250 0.2500
vt 0.8750 0.3750
vt 0.7500 0.2500
vt 0.8750 0.2500
vt 0.2500 0.5000
vt 0.1250 0.3750
vt 0.2500 0.3750
vt 0.5000 0.5000
vt 0.3750 0.3750
vt 0.5000 0.3750
vt 0.7500 0.5000
vt 0.6250 0.3750
vt 0.7500 0.3750
vt 1.0000 0.5000
vt 0.8750 0.3750
vt 1.0000 0.3750
vt 0.1250 0.6250
vt 0.0000 0.5000
vt 0.1250 0.5000
vt 0.3750 0.6250
vt 0.2500 0.5000
vt 0.3750 0.5000
vt 0.6250 0.6250
vt 0.5000 0.5000
vt 0.6250 0.5000
vt 0.8750 0.6250
vt 0.7500 0.5000
vt 0.8750 0.5000
vt 0.2500 0.7500
vt 0.1250 0.6250
vt 0.2500 0.6250
vt 0.5000 0.7500
vt 0.3750 0.6250
vt 0.5000 0.6250
vt 0.7500 0.7500
vt 0.6250 0.6250
vt 0.7500 0.6250
vt 1.0000 0.7500
vt 0.8750 0.6250
vt 1.0000 0.6250
vt 0.1250 0.8750
vt 0.0000 0.7500
vt 0.1250 0.7500
vt 0.3750 0.8750
vt 0.2500 0.7500
vt 0.3750 0.7500
vt 0.6250 0.8750
vt 0.5000 0.7500
vt 0.6250 0.7500
vt 0.8750 0.8750
vt 0.7500 0.7500
vt 0.8750 0.7500
vt 0.2500 1.0000
vt 0.1250 0.8750
vt 0.2500 0.8750
vt 0.5000 1.0000
vt 0.3750 0.8750
vt 0.5000 0.8750
vt 0.7500 1.0000
vt 0.6250 0.8750
vt 0.7500 0.8750
vt 1.0000 1.0000
vt 0.8750 0.8750
vt 1.0000 0.8750
vt 0.0000 0.1250
vt 0.2500 0.1250
vt 0.5000 0.1250
vt 0.7500 0.1250
vt 0.1250 0.2500
vt 0.3750 0.2500
vt 0.6250 0.2500
vt 0.8750 0.2500
vt 0.0000 0.3750
vt 0.2500 0.3750
vt 0.5000 0.3750
vt 0.7500 0.3750
vt 0.1250 0.5000
vt 0.3750 0.5000
vt 0.6250 0.5000
vt 0.8750 0.5000
vt 0.0000 0.6250
vt 0.2500 0.6250
vt 0.5000 0.6250
vt 0.7500 0.6250
vt 0.1250 0.7500
vt 0.3750 0.7500
vt 0.6250 0.7500
vt 0.8750 0.7500
vt 0.0000 0.8750
vt 0.2500 0.8750
vt 0.5000 0.8750
vt 0.7500 0.8750
vt 0.1250 1.0000
vt 0.3750 1.0000
vt 0.6250 1.0000
vt 0.8750 1.0000
vn 0.0000 1.0000 0.0000
usemtl grid.altcolor
s off
f 3/1/1 11/2/1 2/3/1
f 5/4/1 13/5/1 4/6/1
f 7/7/1 15/8/1 6/9/1
f 9/10/1 17/11/1 8/12/1
f 11/13/1 19/14/1 10/15/1
f 13/16/1 21/17/1 12/18/1
f 15/19/1 23/20/1 14/21/1
f 17/22/1 25/23/1 16/24/1
f 21/25/1 29/26/1 20/27/1
f 23/28/1 31/29/1 22/30/1
f 25/31/1 33/32/1 24/33/1
f 27/34/1 35/35/1 26/36/1
f 29/37/1 37/38/1 28/39/1
f 31/40/1 39/41/1 30/42/1
f 33/43/1 41/44/1 32/45/1
f 35/46/1 43/47/1 34/48/1
f 39/49/1 47/50/1 38/51/1
f 41/52/1 49/53/1 40/54/1
f 43/55/1 51/56/1 42/57/1
f 45/58/1 53/59/1 44/60/1
f 47/61/1 55/62/1 46/63/1
f 49/64/1 57/65/1 48/66/1
f 51/67/1 59/68/1 50/69/1
f 53/70/1 61/71/1 52/72/1
f 57/73/1 65/74/1 56/75/1
f 59/76/1 67/77/1 58/78/1
f 61/79/1 69/80/1 60/81/1
f 63/82/1 71/83/1 62/84/1
f 65/85/1 73/86/1 64/87/1
f 67/88/1 75/89/1 66/90/1
f 69/91/1 77/92/1 68/93/1
f 71/94/1 79/95/1 70/96/1
f 3/1/1 12/97/1 11/2/1
f 5/4/1 14/98/1 13/5/1
f 7/7/1 16/99/1 15/8/1
f 9/10/1 18/100/1 17/11/1
f 11/13/1 20/101/1 19/14/1
f 13/16/1 22/102/1 21/17/1
f 15/19/1 24/103/1 23/20/1
f 17/22/1 26/104/1 25/23/1
f 21/25/1 30/105/1 29/26/1
f 23/28/1 32/106/1 31/29/1
f 25/31/1 34/107/1 33/32/1
f 27/34/1 36/108/1 35/35/1
f 29/37/1 38/109/1 37/38/1
f 31/40/1 40/110/1 39/41/1
f 33/43/1 42/111/1 41/44/1
f 35/46/1 44/112/1 43/47/1
f 39/49/1 48/113/1 47/50/1
f 41/52/1 50/114/1 49/53/1
f 43/55/1 52/115/1 51/56/1
f 45/58/1 54/116/1 53/59/1
f 47/61/1 56/117/1 55/62/1
f 49/64/1 58/118/1 57/65/1
f 51/67/1 60/119/1 59/68/1
f 53/70/1 62/120/1 61/71/1
f 57/73/1 66/121/1 65/74/1
f 59/76/1 68/122/1 67/77/1
f 61/79/1 70/123/1 69/80/1
f 63/82/1 72/124/1 71/83/1
f 65/85/1 74/125/1 73/86/1
f 67/88/1 76/126/1 75/89/1
f 69/91/1 78/127/1 77/92/1
f 71/94/1 80/128/1 79/95/1
usemtl grid.color
f 2/129/1 10/130/1 1/131/1
f 4/132/1 12/133/1 3/134/1
f 6/135/1 14/136/1 5/137/1
f 8/138/1 16/139/1 7/140/1
f 12/141/1 20/142/1 11/143/1
f 14/144/1 22/145/1 13/146/1
f 16/147/1 24/148/1 15/149/1
f 18/150/1 26/151/1 17/152/1
f 20/153/1 28/154/1 19/155/1
f 22/156/1 30/157/1 21/158/1
f 24/159/1 32/160/1 23/161/1
f 26/162/1 34/163/1 25/164/1
f 30/165/1 38/166/1 29/167/1
f 32/168/1 40/169/1 31/170/1
f 34/171/1 42/172/1 33/173/1
f 36/174/1 44/175/1 35/176/1
f 38/177/1 46/178/1 37/179/1
f 40/180/1 48/181/1 39/182/1
f 42/183/1 50/184/1 41/185/1
f 44/186/1 52/187/1 43/188/1
f 48/189/1 56/190/1 47/191/1
f 50/192/1 58/193/1 49/194/1
f 52/195/1 60/196/1 51/197/1
f 54/198/1 62/199/1 53/200/1
f 56/201/1 64/202/1 55/203/1
f 58/204/1 66/205/1 57/206/1
f 60/207/1 68/208/1 59/209/1
f 62/210/1 70/211/1 61/212/1
f 66/213/1 74/214/1 65/215/1
f 68/216/1 76/217/1 67/218/1
f 70/219/1 78/220/1 69/221/1
f 72/222/1 80/223/1 71/224/1
f 2/129/1 11/225/1 10/130/1
f 4/132/1 13/226/1 12/133/1
f 6/135/1 15/227/1 14/136/1
f 8/138/1 17/228/1 16/139/1
f 12/141/1 21/229/1 20/142/1
f 14/144/1 23/230/1 22/145/1
f 16/147/1 25/231/1 24/148/1
f 18/150/1 27/232/1 26/151/1
f 20/153/1 29/233/1 28/154/1
f 22/156/1 31/234/1 30/157/1
f 24/159/1 33/235/1 32/160/1
f 26/162/1 35/236/1 34/163/1
f 30/165/1 39/237/1 38/166/1
f 32/168/1 41/238/1 40/169/1
f 34/171/1 43/239/1 42/172/1
f 36/174/1 45/240/1 44/175/1
f 38/177/1 47/241/1 46/178/1
f 40/180/1 49/242/1 48/181/1
f 42/183/1 51/243/1 50/184/1
f 44/186/1 53/244/1 52/187/1
f 48/189/1 57/245/1 56/190/1
f 50/192/1 59/246/1 58/193/1
f 52/195/1 61/247/1 60/196/1
f 54/198/1 63/248/1 62/199/1
f 56/201/1 65/249/1 64/202/1
f 58/204/1 67/250/1 66/205/1
f 60/207/1 69/251/1 68/208/1
f 62/210/1 71/252/1 70/211/1
f 66/213/1 75/253/1 74/214/1
f 68/216/1 77/254/1 76/217/1
f 70/219/1 79/255/1 78/220/1
f 72/222/1 81/256/1 80/223/1
