# Blender 3.6.2
# www.blender.org
mtllib grouped.mtl
o Cylinder
v 0.000000 3.139744 -0.330000
v 0.000000 3.799744 -0.330000
v 0.064380 3.139744 -0.323659
v 0.064380 3.799744 -0.323659
v 0.126286 3.139744 -0.304880
v 0.126286 3.799744 -0.304880
v 0.183338 3.139744 -0.274385
v 0.183338 3.799744 -0.274385
v 0.233345 3.139744 -0.233345
v 0.233345 3.799744 -0.233345
v 0.274385 3.139744 -0.183338
v 0.274385 3.799744 -0.183338
v 0.304880 3.139744 -0.126286
v 0.304880 3.799744 -0.126286
v 0.323659 3.139744 -0.064380
v 0.323659 3.799744 -0.064380
v 0.330000 3.139744 -0.000000
v 0.330000 3.799744 -0.000000
v 0.323659 3.139744 0.064380
v 0.323659 3.799744 0.064380
v 0.304880 3.139744 0.126285
v 0.304880 3.799744 0.126285
v 0.274385 3.139744 0.183338
v 0.274385 3.799744 0.183338
v 0.233345 3.139744 0.233345
v 0.233345 3.799744 0.233345
v 0.183338 3.139744 0.274385
v 0.183338 3.799744 0.274385
v 0.126285 3.139744 0.304880
v 0.126285 3.799744 0.304880
v 0.064380 3.139744 0.323659
v 0.064380 3.799744 0.323659
v -0.000000 3.139744 0.330000
v -0.000000 3.799744 0.330000
v -0.064380 3.139744 0.323659
v -0.064380 3.799744 0.323659
v -0.126286 3.139744 0.304880
v -0.126286 3.799744 0.304880
v -0.183338 3.139744 0.274385
v -0.183338 3.799744 0.274385
v -0.233345 3.139744 0.233345
v -0.233345 3.799744 0.233345
v -0.274385 3.139744 0.183338
v -0.274385 3.799744 0.183338
v -0.304880 3.139744 0.126285
v -0.304880 3.799744 0.126285
v -0.323659 3.139744 0.064380
v -0.323659 3.799744 0.064380
v -0.330000 3.139744 -0.000000
v -0.330000 3.799744 -0.000000
v -0.323659 3.139744 -0.064380
v -0.323659 3.799744 -0.064380
v -0.304880 3.139744 -0.126286
v -0.304880 3.799744 -0.126286
v -0.274385 3.139744 -0.183339
v -0.274385 3.799744 -0.183339
v -0.233345 3.139744 -0.233346
v -0.233345 3.799744 -0.233346
v -0.183338 3.139744 -0.274385
v -0.183338 3.799744 -0.274385
v -0.126285 3.139744 -0.304880
v -0.126285 3.799744 -0.304880
v -0.064379 3.139744 -0.323659
v -0.064379 3.799744 -0.323659
vn 0.0980 -0.0000 -0.9952
vn 0.2903 -0.0000 -0.9569
vn 0.4714 -0.0000 -0.8819
vn 0.6344 -0.0000 -0.7730
vn 0.7730 -0.0000 -0.6344
vn 0.8819 -0.0000 -0.4714
vn 0.9569 -0.0000 -0.2903
vn 0.9952 -0.0000 -0.0980
vn 0.9952 -0.0000 0.0980
vn 0.9569 -0.0000 0.2903
vn 0.8819 -0.0000 0.4714
vn 0.7730 -0.0000 0.6344
vn 0.6344 -0.0000 0.7730
vn 0.4714 -0.0000 0.8819
vn 0.2903 -0.0000 0.9569
vn 0.0980 -0.0000 0.9952
vn -0.0980 -0.0000 0.9952
vn -0.2903 -0.0000 0.9569
vn -0.4714 -0.0000 0.8819
vn -0.6344 -0.0000 0.7730
vn -0.7730 -0.0000 0.6344
vn -0.8819 -0.0000 0.4714
vn -0.9569 -0.0000 0.2903
vn -0.9952 -0.0000 0.0980
vn -0.9952 -0.0000 -0.0980
vn -0.9569 -0.0000 -0.2903
vn -0.8819 -0.0000 -0.4714
vn -0.7730 -0.0000 -0.6344
vn -0.6344 -0.0000 -0.7730
vn -0.4714 -0.0000 -0.8819
vn -0.0000 1.0000 -0.0000
vn -0.2903 -0.0000 -0.9569
vn -0.0980 -0.0000 -0.9952
vn -0.0000 -1.0000 -0.0000
s 0
f 2//1 3//1 1//1
f 4//2 5//2 3//2
f 6//3 7//3 5//3
f 8//4 9//4 7//4
f 10//5 11//5 9//5
f 12//6 13//6 11//6
f 14//7 15//7 13//7
f 16//8 17//8 15//8
f 18//9 19//9 17//9
f 20//10 21//10 19//10
f 22//11 23//11 21//11
f 24//12 25//12 23//12
f 26//13 27//13 25//13
f 28//14 29//14 27//14
f 30//15 31//15 29//15
f 32//16 33//16 31//16
f 34//17 35//17 33//17
f 36//18 37//18 35//18
f 38//19 39//19 37//19
f 40//20 41//20 39//20
f 42//21 43//21 41//21
f 44//22 45//22 43//22
f 46//23 47//23 45//23
f 48//24 49//24 47//24
f 50//25 51//25 49//25
f 52//26 53//26 51//26
f 54//27 55//27 53//27
f 56//28 57//28 55//28
f 58//29 59//29 57//29
f 60//30 61//30 59//30
f 38//31 22//31 6//31
f 62//32 63//32 61//32
f 64//33 1//33 63//33
f 31//34 47//34 63//34
f 2//1 4//1 3//1
f 4//2 6//2 5//2
f 6//3 8//3 7//3
f 8//4 10//4 9//4
f 10//5 12//5 11//5
f 12//6 14//6 13//6
f 14//7 16//7 15//7
f 16//8 18//8 17//8
f 18//9 20//9 19//9
f 20//10 22//10 21//10
f 22//11 24//11 23//11
f 24//12 26//12 25//12
f 26//13 28//13 27//13
f 28//14 30//14 29//14
f 30//15 32//15 31//15
f 32//16 34//16 33//16
f 34//17 36//17 35//17
f 36//18 38//18 37//18
f 38//19 40//19 39//19
f 40//20 42//20 41//20
f 42//21 44//21 43//21
f 44//22 46//22 45//22
f 46//23 48//23 47//23
f 48//24 50//24 49//24
f 50//25 52//25 51//25
f 52//26 54//26 53//26
f 54//27 56//27 55//27
f 56//28 58//28 57//28
f 58//29 60//29 59//29
f 60//30 62//30 61//30
f 6//31 4//31 2//31
f 2//31 64//31 62//31
f 62//31 60//31 58//31
f 58//31 56//31 54//31
f 54//31 52//31 50//31
f 50//31 48//31 46//31
f 46//31 44//31 42//31
f 42//31 40//31 38//31
f 38//31 36//31 34//31
f 34//31 32//31 30//31
f 30//31 28//31 26//31
f 26//31 24//31 22//31
f 22//31 20//31 18//31
f 18//31 16//31 14//31
f 14//31 12//31 10//31
f 10//31 8//31 6//31
f 6//31 2//31 62//31
f 62//31 58//31 54//31
f 54//31 50//31 46//31
f 46//31 42//31 38//31
f 38//31 34//31 30//31
f 30//31 26//31 22//31
f 22//31 18//31 14//31
f 14//31 10//31 6//31
f 6//31 62//31 54//31
f 54//31 46//31 38//31
f 38//31 30//31 22//31
f 22//31 14//31 6//31
f 6//31 54//31 38//31
f 62//32 64//32 63//32
f 64//33 2//33 1//33
f 63//34 1//34 3//34
f 3//34 5//34 7//34
f 7//34 9//34 11//34
f 11//34 13//34 15//34
f 15//34 17//34 19//34
f 19//34 21//34 23//34
f 23//34 25//34 27//34
f 27//34 29//34 31//34
f 31//34 33//34 35//34
f 35//34 37//34 39//34
f 39//34 41//34 43//34
f 43//34 45//34 47//34
f 47//34 49//34 51//34
f 51//34 53//34 55//34
f 55//34 57//34 59//34
f 59//34 61//34 63//34
f 63//34 3//34 7//34
f 7//34 11//34 15//34
f 15//34 19//34 23//34
f 23//34 27//34 31//34
f 31//34 35//34 39//34
f 39//34 43//34 47//34
f 47//34 51//34 55//34
f 55//34 59//34 63//34
f 63//34 7//34 15//34
f 15//34 23//34 31//34
f 31//34 39//34 47//34
f 47//34 55//34 63//34
f 63//34 15//34 31//34
o Icosphere.002
v 0.000000 0.000000 0.000000
v 0.932802 0.552781 0.513461
v -0.356292 0.552780 0.830805
v -1.153004 0.552784 0.000000
v -0.356292 0.552780 -0.830805
v 0.932802 0.552781 -0.513461
v 0.356292 1.447220 0.830805
v -0.932802 1.447219 0.513461
v -0.932802 1.447219 -0.513461
v 0.356292 1.447220 -0.830805
v 1.153004 1.447216 0.000000
v 0.000000 2.000000 0.000000
v -0.209421 0.149346 0.488331
v 0.548283 0.149346 0.301803
v 0.338864 0.474262 0.790139
v 1.096569 0.474264 0.000000
v 0.548283 0.149346 -0.301803
v -0.677718 0.149348 0.000000
v -0.887144 0.474264 0.488333
v -0.209421 0.149346 -0.488331
v -0.887144 0.474264 -0.488333
v 0.338864 0.474262 -0.790139
v 1.226008 1.000000 0.301804
v 1.226008 1.000000 -0.301804
v 0.000000 1.000000 0.976672
v 0.757714 1.000000 0.790144
v -1.226008 1.000000 0.301804
v -0.757714 1.000000 0.790144
v -0.757714 1.000000 -0.790144
v -1.226008 1.000000 -0.301804
v 0.757714 1.000000 -0.790144
v 0.000000 1.000000 -0.976672
v 0.887144 1.525736 0.488333
v -0.338864 1.525738 0.790139
v -1.096569 1.525736 0.000000
v -0.338864 1.525738 -0.790139
v 0.887144 1.525736 -0.488333
v 0.209421 1.850654 0.488331
v 0.677718 1.850652 0.000000
v -0.548283 1.850654 0.301803
v -0.548283 1.850654 -0.301803
v 0.209421 1.850654 -0.488331
vn 0.0794 -0.9432 0.3225
vn 0.6042 -0.7360 0.3053
vn -0.2108 -0.9564 0.2021
vn -0.2108 -0.9564 -0.2021
vn 0.0794 -0.9432 -0.3225
vn 0.8530 -0.4014 0.3335
vn 0.0188 -0.3235 0.9460
vn -0.8311 -0.3979 0.3885
vn -0.4710 -0.3491 -0.8101
vn 0.4334 -0.3453 -0.8324
vn 0.7142 -0.1441 0.6849
vn -0.2372 -0.1253 0.9634
vn -0.9869 -0.1611 -0.0000
vn -0.2372 -0.1253 -0.9634
vn 0.7142 -0.1441 -0.6849
vn 0.3250 0.6780 0.6593
vn -0.3795 0.6869 0.6198
vn -0.6042 0.7360 -0.3053
vn 0.0295 0.6531 -0.7567
vn 0.6307 0.7430 -0.2239
vn 0.2108 0.9564 -0.2021
vn 0.3994 0.8330 -0.3830
vn 0.3250 0.6780 -0.6593
vn -0.0794 0.9432 -0.3225
vn -0.1454 0.7938 -0.5905
vn -0.3795 0.6869 -0.6198
vn -0.2628 0.9648 -0.0000
vn -0.5098 0.8603 -0.0000
vn -0.6042 0.7360 0.3053
vn -0.0794 0.9432 0.3225
vn -0.1454 0.7938 0.5905
vn 0.0295 0.6531 0.7567
vn 0.2108 0.9564 0.2021
vn 0.3994 0.8330 0.3830
vn 0.6307 0.7430 0.2239
vn 0.8311 0.3979 -0.3885
vn 0.7050 0.2145 -0.6760
vn 0.4710 0.3491 -0.8101
vn -0.0188 0.3235 -0.9460
vn -0.2348 0.1871 -0.9539
vn -0.4334 0.3453 -0.8324
vn -0.8530 0.4014 -0.3335
vn -0.9710 0.2391 -0.0000
vn -0.8530 0.4014 0.3335
vn -0.4334 0.3453 0.8324
vn -0.2348 0.1871 0.9539
vn -0.0188 0.3235 0.9460
vn 0.4710 0.3491 0.8101
vn 0.7050 0.2145 0.6760
vn 0.8311 0.3979 0.3885
vn 0.2372 0.1253 -0.9634
vn 0.2348 -0.1871 -0.9539
vn 0.0188 -0.3235 -0.9460
vn -0.7142 0.1441 -0.6849
vn -0.7050 -0.2145 -0.6760
vn -0.8311 -0.3979 -0.3885
vn -0.7142 0.1441 0.6849
vn -0.7050 -0.2145 0.6760
vn -0.4710 -0.3491 0.8101
vn 0.2372 0.1253 0.9634
vn 0.2348 -0.1871 0.9539
vn 0.4334 -0.3453 0.8324
vn 0.9869 0.1611 -0.0000
vn 0.9710 -0.2391 -0.0000
vn 0.8530 -0.4014 -0.3335
vn 0.3795 -0.6869 -0.6198
vn 0.1454 -0.7938 -0.5905
vn -0.0295 -0.6531 -0.7567
vn -0.3250 -0.6780 -0.6593
vn -0.3994 -0.8330 -0.3830
vn -0.6307 -0.7430 -0.2239
vn -0.6307 -0.7430 0.2239
vn -0.3994 -0.8330 0.3830
vn -0.3250 -0.6780 0.6593
vn 0.6042 -0.7360 -0.3053
vn 0.5098 -0.8603 -0.0000
vn 0.2628 -0.9648 -0.0000
vn -0.0295 -0.6531 0.7567
vn 0.1454 -0.7938 0.5905
vn 0.3795 -0.6869 0.6198
s 0
f 65//35 78//35 77//35
f 66//36 78//36 80//36
f 65//37 77//37 82//37
f 65//38 82//38 84//38
f 65//39 84//39 81//39
f 66//40 80//40 87//40
f 67//41 79//41 89//41
f 68//42 83//42 91//42
f 69//43 85//43 93//43
f 70//44 86//44 95//44
f 66//45 87//45 90//45
f 67//46 89//46 92//46
f 68//47 91//47 94//47
f 69//48 93//48 96//48
f 70//49 95//49 88//49
f 71//50 97//50 102//50
f 72//51 98//51 104//51
f 73//52 99//52 105//52
f 74//53 100//53 106//53
f 75//54 101//54 103//54
f 103//55 106//55 76//55
f 103//56 101//56 106//56
f 101//57 74//57 106//57
f 106//58 105//58 76//58
f 106//59 100//59 105//59
f 100//60 73//60 105//60
f 105//61 104//61 76//61
f 105//62 99//62 104//62
f 99//63 72//63 104//63
f 104//64 102//64 76//64
f 104//65 98//65 102//65
f 98//66 71//66 102//66
f 102//67 103//67 76//67
f 102//68 97//68 103//68
f 97//69 75//69 103//69
f 88//70 101//70 75//70
f 88//71 95//71 101//71
f 95//72 74//72 101//72
f 96//73 100//73 74//73
f 96//74 93//74 100//74
f 93//75 73//75 100//75
f 94//76 99//76 73//76
f 94//77 91//77 99//77
f 91//78 72//78 99//78
f 92//79 98//79 72//79
f 92//80 89//80 98//80
f 89//81 71//81 98//81
f 90//82 97//82 71//82
f 90//83 87//83 97//83
f 87//84 75//84 97//84
f 95//85 96//85 74//85
f 95//86 86//86 96//86
f 86//87 69//87 96//87
f 93//88 94//88 73//88
f 93//89 85//89 94//89
f 85//90 68//90 94//90
f 91//91 92//91 72//91
f 91//92 83//92 92//92
f 83//93 67//93 92//93
f 89//94 90//94 71//94
f 89//95 79//95 90//95
f 79//96 66//96 90//96
f 87//97 88//97 75//97
f 87//98 80//98 88//98
f 80//99 70//99 88//99
f 81//100 86//100 70//100
f 81//101 84//101 86//101
f 84//102 69//102 86//102
f 84//103 85//103 69//103
f 84//104 82//104 85//104
f 82//105 68//105 85//105
f 82//106 83//106 68//106
f 82//107 77//107 83//107
f 77//108 67//108 83//108
f 80//109 81//109 70//109
f 80//110 78//110 81//110
f 78//111 65//111 81//111
f 77//112 79//112 67//112
f 77//113 78//113 79//113
f 78//114 66//114 79//114
o Icosphere.001
v 0.000000 1.545344 0.000000
v -1.632034 2.082200 -0.721678
v 0.623369 2.082200 -1.167711
v 2.017301 2.082204 0.000000
v 0.623369 2.082200 1.167711
v -1.632034 2.082200 0.721678
v -0.623369 2.950873 -1.167711
v 1.632034 2.950872 -0.721678
v 1.632034 2.950872 0.721678
v -0.623369 2.950873 1.167711
v -2.017301 2.950869 0.000000
v 0.000000 3.487729 0.000000
v 0.366404 1.690387 -0.686358
v -0.959278 1.690387 -0.424189
v -0.592878 2.005944 -1.110554
v -1.918563 2.005945 0.000000
v -0.959278 1.690387 0.424189
v 1.185738 1.690390 0.000000
v 1.552151 2.005945 -0.686360
v 0.366404 1.690387 0.686358
v 1.552151 2.005945 0.686360
v -0.592878 2.005944 1.110554
v -2.145029 2.516536 -0.424190
v -2.145029 2.516536 0.424190
v 0.000000 2.516536 -1.372729
v -1.325699 2.516536 -1.110560
v 2.145029 2.516536 -0.424190
v 1.325699 2.516536 -1.110560
v 1.325699 2.516536 1.110560
v 2.145029 2.516536 0.424190
v -1.325699 2.516536 1.110560
v 0.000000 2.516536 1.372729
v -1.552151 3.027127 -0.686360
v 0.592878 3.027129 -1.110554
v 1.918563 3.027127 0.000000
v 0.592878 3.027129 1.110554
v -1.552151 3.027127 0.686360
v -0.366404 3.342685 -0.686358
v -1.185738 3.342683 0.000000
v 0.959278 3.342685 -0.424189
v 0.959278 3.342685 0.424189
v -0.366404 3.342685 0.686358
vn -0.0454 -0.9722 -0.2297
vn -0.4012 -0.8805 -0.2523
vn 0.1202 -0.9823 -0.1434
vn 0.1202 -0.9823 0.1434
vn -0.0454 -0.9722 0.2297
vn -0.7151 -0.6063 -0.3480
vn -0.0143 -0.4435 -0.8961
vn 0.6930 -0.5976 -0.4032
vn 0.3684 -0.4920 0.7888
vn -0.3376 -0.4845 0.8070
vn -0.6254 -0.2273 -0.7465
vn 0.1908 -0.1816 -0.9647
vn 0.9594 -0.2821 -0.0000
vn 0.1908 -0.1816 0.9647
vn -0.6254 -0.2273 0.7465
vn -0.2157 0.8105 -0.5446
vn 0.2519 0.8212 -0.5120
vn 0.4012 0.8805 0.2523
vn -0.0196 0.7805 0.6249
vn -0.4189 0.8890 0.1851
vn -0.1202 0.9823 0.1434
vn -0.2458 0.9238 0.2935
vn -0.2157 0.8105 0.5446
vn 0.0454 0.9722 0.2297
vn 0.0900 0.8858 0.4553
vn 0.2519 0.8212 0.5120
vn 0.1495 0.9888 -0.0000
vn 0.3125 0.9499 -0.0000
vn 0.4012 0.8805 -0.2523
vn 0.0454 0.9722 -0.2297
vn 0.0900 0.8858 -0.4553
vn -0.0196 0.7805 -0.6249
vn -0.1202 0.9823 -0.1434
vn -0.2458 0.9238 -0.2935
vn -0.4189 0.8890 -0.1851
vn -0.6930 0.5976 0.4032
vn -0.6057 0.3321 0.7231
vn -0.3684 0.4920 0.7888
vn 0.0143 0.4435 0.8961
vn 0.1869 0.2682 0.9450
vn 0.3376 0.4845 0.8070
vn 0.7151 0.6063 0.3480
vn 0.9141 0.4054 -0.0000
vn 0.7151 0.6063 -0.3480
vn 0.3376 0.4845 -0.8070
vn 0.1869 0.2682 -0.9450
vn 0.0143 0.4435 -0.8961
vn -0.3684 0.4920 -0.7888
vn -0.6057 0.3321 -0.7231
vn -0.6930 0.5976 -0.4032
vn -0.1908 0.1816 0.9647
vn -0.1869 -0.2682 0.9450
vn -0.0143 -0.4435 0.8961
vn 0.6254 0.2273 0.7465
vn 0.6057 -0.3321 0.7231
vn 0.6930 -0.5976 0.4032
vn 0.6254 0.2273 -0.7465
vn 0.6057 -0.3321 -0.7231
vn 0.3684 -0.4920 -0.7888
vn -0.1908 0.1816 -0.9647
vn -0.1869 -0.2682 -0.9450
vn -0.3376 -0.4845 -0.8070
vn -0.9594 0.2821 -0.0000
vn -0.9141 -0.4054 -0.0000
vn -0.7151 -0.6063 0.3480
vn -0.2519 -0.8212 0.5120
vn -0.0900 -0.8858 0.4553
vn 0.0196 -0.7805 0.6249
vn 0.2157 -0.8105 0.5446
vn 0.2458 -0.9238 0.2935
vn 0.4189 -0.8890 0.1851
vn 0.4189 -0.8890 -0.1851
vn 0.2458 -0.9238 -0.2935
vn 0.2157 -0.8105 -0.5446
vn -0.4012 -0.8805 0.2523
vn -0.3125 -0.9499 -0.0000
vn -0.1495 -0.9888 -0.0000
vn 0.0196 -0.7805 -0.6249
vn -0.0900 -0.8858 -0.4553
vn -0.2519 -0.8212 -0.5120
s 0
f 107//115 120//115 119//115
f 108//116 120//116 122//116
f 107//117 119//117 124//117
f 107//118 124//118 126//118
f 107//119 126//119 123//119
f 108//120 122//120 129//120
f 109//121 121//121 131//121
f 110//122 125//122 133//122
f 111//123 127//123 135//123
f 112//124 128//124 137//124
f 108//125 129//125 132//125
f 109//126 131//126 134//126
f 110//127 133//127 136//127
f 111//128 135//128 138//128
f 112//129 137//129 130//129
f 113//130 139//130 144//130
f 114//131 140//131 146//131
f 115//132 141//132 147//132
f 116//133 142//133 148//133
f 117//134 143//134 145//134
f 145//135 148//135 118//135
f 145//136 143//136 148//136
f 143//137 116//137 148//137
f 148//138 147//138 118//138
f 148//139 142//139 147//139
f 142//140 115//140 147//140
f 147//141 146//141 118//141
f 147//142 141//142 146//142
f 141//143 114//143 146//143
f 146//144 144//144 118//144
f 146//145 140//145 144//145
f 140//146 113//146 144//146
f 144//147 145//147 118//147
f 144//148 139//148 145//148
f 139//149 117//149 145//149
f 130//150 143//150 117//150
f 130//151 137//151 143//151
f 137//152 116//152 143//152
f 138//153 142//153 116//153
f 138//154 135//154 142//154
f 135//155 115//155 142//155
f 136//156 141//156 115//156
f 136//157 133//157 141//157
f 133//158 114//158 141//158
f 134//159 140//159 114//159
f 134//160 131//160 140//160
f 131//161 113//161 140//161
f 132//162 139//162 113//162
f 132//163 129//163 139//163
f 129//164 117//164 139//164
f 137//165 138//165 116//165
f 137//166 128//166 138//166
f 128//167 111//167 138//167
f 135//168 136//168 115//168
f 135//169 127//169 136//169
f 127//170 110//170 136//170
f 133//171 134//171 114//171
f 133//172 125//172 134//172
f 125//173 109//173 134//173
f 131//174 132//174 113//174
f 131//175 121//175 132//175
f 121//176 108//176 132//176
f 129//177 130//177 117//177
f 129//178 122//178 130//178
f 122//179 112//179 130//179
f 123//180 128//180 112//180
f 123//181 126//181 128//181
f 126//182 111//182 128//182
f 126//183 127//183 111//183
f 126//184 124//184 127//184
f 124//185 110//185 127//185
f 124//186 125//186 110//186
f 124//187 119//187 125//187
f 119//188 109//188 125//188
f 122//189 123//189 112//189
f 122//190 120//190 123//190
f 120//191 107//191 123//191
f 119//192 121//192 109//192
f 119//193 120//193 121//193
f 120//194 108//194 121//194
o Icosphere
v 0.000000 3.514492 0.000000
v 0.723607 4.067273 0.525725
v -0.276388 4.067272 0.850649
v -0.894426 4.067276 0.000000
v -0.276388 4.067272 -0.850649
v 0.723607 4.067273 -0.525725
v 0.276388 4.961712 0.850649
v -0.723607 4.961711 0.525725
v -0.723607 4.961711 -0.525725
v 0.276388 4.961712 -0.850649
v 0.894426 4.961708 0.000000
v 0.000000 5.514492 0.000000
v -0.162456 3.663838 0.499995
v 0.425323 3.663838 0.309011
v 0.262869 3.988754 0.809012
v 0.850648 3.988756 0.000000
v 0.425323 3.663838 -0.309011
v -0.525730 3.663840 0.000000
v -0.688189 3.988756 0.499997
v -0.162456 3.663838 -0.499995
v -0.688189 3.988756 -0.499997
v 0.262869 3.988754 -0.809012
v 0.951058 4.514492 0.309013
v 0.951058 4.514492 -0.309013
v 0.000000 4.514492 1.000000
v 0.587786 4.514492 0.809017
v -0.951058 4.514492 0.309013
v -0.587786 4.514492 0.809017
v -0.587786 4.514492 -0.809017
v -0.951058 4.514492 -0.309013
v 0.587786 4.514492 -0.809017
v 0.000000 4.514492 -1.000000
v 0.688189 5.040228 0.499997
v -0.262869 5.040230 0.809012
v -0.850648 5.040228 0.000000
v -0.262869 5.040230 -0.809012
v 0.688189 5.040228 -0.499997
v 0.162456 5.365147 0.499995
v 0.525730 5.365144 0.000000
v -0.425323 5.365146 0.309011
v -0.425323 5.365146 -0.309011
v 0.162456 5.365147 -0.499995
vn 0.1024 -0.9435 0.3151
vn 0.7002 -0.6617 0.2680
vn -0.2680 -0.9435 0.1947
vn -0.2680 -0.9435 -0.1947
vn 0.1024 -0.9435 -0.3151
vn 0.9050 -0.3304 0.2680
vn 0.0247 -0.3304 0.9435
vn -0.8897 -0.3304 0.3151
vn -0.5746 -0.3304 -0.7488
vn 0.5346 -0.3304 -0.7779
vn 0.8026 -0.1256 0.5831
vn -0.3066 -0.1256 0.9435
vn -0.9921 -0.1256 -0.0000
vn -0.3066 -0.1256 -0.9435
vn 0.8026 -0.1256 -0.5831
vn 0.4089 0.6617 0.6284
vn -0.4713 0.6617 0.5831
vn -0.7002 0.6617 -0.2680
vn 0.0385 0.6617 -0.7488
vn 0.7240 0.6617 -0.1947
vn 0.2680 0.9435 -0.1947
vn 0.4911 0.7947 -0.3568
vn 0.4089 0.6617 -0.6284
vn -0.1024 0.9435 -0.3151
vn -0.1876 0.7947 -0.5773
vn -0.4713 0.6617 -0.5831
vn -0.3313 0.9435 -0.0000
vn -0.6071 0.7947 -0.0000
vn -0.7002 0.6617 0.2680
vn -0.1024 0.9435 0.3151
vn -0.1876 0.7947 0.5773
vn 0.0385 0.6617 0.7488
vn 0.2680 0.9435 0.1947
vn 0.4911 0.7947 0.3568
vn 0.7240 0.6617 0.1947
vn 0.8897 0.3304 -0.3151
vn 0.7947 0.1876 -0.5773
vn 0.5746 0.3304 -0.7488
vn -0.0247 0.3304 -0.9435
vn -0.3035 0.1876 -0.9342
vn -0.5346 0.3304 -0.7779
vn -0.9050 0.3304 -0.2680
vn -0.9822 0.1876 -0.0000
vn -0.9050 0.3304 0.2680
vn -0.5346 0.3304 0.7779
vn -0.3035 0.1876 0.9342
vn -0.0247 0.3304 0.9435
vn 0.5746 0.3304 0.7488
vn 0.7947 0.1876 0.5773
vn 0.8897 0.3304 0.3151
vn 0.3066 0.1256 -0.9435
vn 0.3035 -0.1876 -0.9342
vn 0.0247 -0.3304 -0.9435
vn -0.8026 0.1256 -0.5831
vn -0.7947 -0.1876 -0.5773
vn -0.8897 -0.3304 -0.3151
vn -0.8026 0.1256 0.5831
vn -0.7947 -0.1876 0.5773
vn -0.5746 -0.3304 0.7488
vn 0.3066 0.1256 0.9435
vn 0.3035 -0.1876 0.9342
vn 0.5346 -0.3304 0.7779
vn 0.9921 0.1256 -0.0000
vn 0.9822 -0.1876 -0.0000
vn 0.9050 -0.3304 -0.2680
vn 0.4713 -0.6617 -0.5831
vn 0.1876 -0.7947 -0.5773
vn -0.0385 -0.6617 -0.7488
vn -0.4089 -0.6617 -0.6284
vn -0.4911 -0.7947 -0.3568
vn -0.7240 -0.6617 -0.1947
vn -0.7240 -0.6617 0.1947
vn -0.4911 -0.7947 0.3568
vn -0.4089 -0.6617 0.6284
vn 0.7002 -0.6617 -0.2680
vn 0.6071 -0.7947 -0.0000
vn 0.3313 -0.9435 -0.0000
vn -0.0385 -0.6617 0.7488
vn 0.1876 -0.7947 0.5773
vn 0.4713 -0.6617 0.5831
s 0
f 149//195 162//195 161//195
f 150//196 162//196 164//196
f 149//197 161//197 166//197
f 149//198 166//198 168//198
f 149//199 168//199 165//199
f 150//200 164//200 171//200
f 151//201 163//201 173//201
f 152//202 167//202 175//202
f 153//203 169//203 177//203
f 154//204 170//204 179//204
f 150//205 171//205 174//205
f 151//206 173//206 176//206
f 152//207 175//207 178//207
f 153//208 177//208 180//208
f 154//209 179//209 172//209
f 155//210 181//210 186//210
f 156//211 182//211 188//211
f 157//212 183//212 189//212
f 158//213 184//213 190//213
f 159//214 185//214 187//214
f 187//215 190//215 160//215
f 187//216 185//216 190//216
f 185//217 158//217 190//217
f 190//218 189//218 160//218
f 190//219 184//219 189//219
f 184//220 157//220 189//220
f 189//221 188//221 160//221
f 189//222 183//222 188//222
f 183//223 156//223 188//223
f 188//224 186//224 160//224
f 188//225 182//225 186//225
f 182//226 155//226 186//226
f 186//227 187//227 160//227
f 186//228 181//228 187//228
f 181//229 159//229 187//229
f 172//230 185//230 159//230
f 172//231 179//231 185//231
f 179//232 158//232 185//232
f 180//233 184//233 158//233
f 180//234 177//234 184//234
f 177//235 157//235 184//235
f 178//236 183//236 157//236
f 178//237 175//237 183//237
f 175//238 156//238 183//238
f 176//239 182//239 156//239
f 176//240 173//240 182//240
f 173//241 155//241 182//241
f 174//242 181//242 155//242
f 174//243 171//243 181//243
f 171//244 159//244 181//244
f 179//245 180//245 158//245
f 179//246 170//246 180//246
f 170//247 153//247 180//247
f 177//248 178//248 157//248
f 177//249 169//249 178//249
f 169//250 152//250 178//250
f 175//251 176//251 156//251
f 175//252 167//252 176//252
f 167//253 151//253 176//253
f 173//254 174//254 155//254
f 173//255 163//255 174//255
f 163//256 150//256 174//256
f 171//257 172//257 159//257
f 171//258 164//258 172//258
f 164//259 154//259 172//259
f 165//260 170//260 154//260
f 165//261 168//261 170//261
f 168//262 153//262 170//262
f 168//263 169//263 153//263
f 168//264 166//264 169//264
f 166//265 152//265 169//265
f 166//266 167//266 152//266
f 166//267 161//267 167//267
f 161//268 151//268 167//268
f 164//269 165//269 154//269
f 164//270 162//270 165//270
f 162//271 149//271 165//271
f 161//272 163//272 151//272
f 161//273 162//273 163//273
f 162//274 150//274 163//274
