# Blender v2.78 (sub 0) OBJ File: '1d-rigg.blend'
# www.blender.org
mtllib rigg1d.mtl
o rigg1d
v -8.000000 0.000000 0.500000
v -7.483871 0.000000 0.500000
v -6.967742 0.000000 0.500000
v -6.451613 0.000000 0.500000
v -5.935484 0.000000 0.500000
v -5.419355 0.000000 0.500000
v -4.903226 0.000000 0.500000
v -4.387097 0.000000 0.500000
v -3.870968 0.000000 0.500000
v -3.354839 0.000000 0.500000
v -2.838710 0.000000 0.500000
v -2.322581 0.000000 0.500000
v -1.806452 0.000000 0.500000
v -1.290323 0.000000 0.500000
v -0.774194 0.000000 0.500000
v -0.258065 0.000000 0.500000
v 0.258064 0.000000 0.500000
v 0.774193 0.000000 0.500000
v 1.290322 0.000000 0.500000
v 1.806452 0.000000 0.500000
v 2.322580 0.000000 0.500000
v 2.838709 0.000000 0.500000
v 3.354838 0.000000 0.500000
v 3.870968 0.000000 0.500000
v 4.387096 0.000000 0.500000
v 4.903225 0.000000 0.500000
v 5.419354 0.000000 0.500000
v 5.935484 0.000000 0.500000
v 6.451612 0.000000 0.500000
v 6.967741 0.000000 0.500000
v 7.483871 0.000000 0.500000
v 8.000000 0.000000 0.500000
v -8.000000 0.000000 -0.500000
v -7.483871 0.000000 -0.500000
v -6.967742 0.000000 -0.500000
v -6.451613 0.000000 -0.500000
v -5.935484 0.000000 -0.500000
v -5.419355 0.000000 -0.500000
v -4.903226 0.000000 -0.500000
v -4.387097 0.000000 -0.500000
v -3.870968 0.000000 -0.500000
v -3.354839 0.000000 -0.500000
v -2.838710 0.000000 -0.500000
v -2.322581 0.000000 -0.500000
v -1.806452 0.000000 -0.500000
v -1.290323 0.000000 -0.500000
v -0.774194 0.000000 -0.500000
v -0.258065 0.000000 -0.500000
v 0.258064 0.000000 -0.500000
v 0.774193 0.000000 -0.500000
v 1.290322 0.000000 -0.500000
v 1.806452 0.000000 -0.500000
v 2.322580 0.000000 -0.500000
v 2.838709 0.000000 -0.500000
v 3.354838 0.000000 -0.500000
v 3.870968 0.000000 -0.500000
v 4.387096 0.000000 -0.500000
v 4.903225 0.000000 -0.500000
v 5.419354 0.000000 -0.500000
v 5.935484 0.000000 -0.500000
v 6.451612 0.000000 -0.500000
v 6.967741 0.000000 -0.500000
v 7.483871 0.000000 -0.500000
v 8.000000 0.000000 -0.500000
vt 0.0645 1.0000
vt 0.0323 0.0000
vt 0.0645 0.0000
vt 0.1290 1.0000
vt 0.0968 0.0000
vt 0.1290 0.0000
vt 0.1935 1.0000
vt 0.1613 0.0000
vt 0.1935 0.0000
vt 0.2581 1.0000
vt 0.2258 0.0000
vt 0.2581 0.0000
vt 0.3226 1.0000
vt 0.2903 0.0000
vt 0.3226 0.0000
vt 0.3871 1.0000
vt 0.3548 0.0000
vt 0.3871 0.0000
vt 0.4516 1.0000
vt 0.4194 0.0000
vt 0.4516 0.0000
vt 0.5161 1.0000
vt 0.4839 0.0000
vt 0.5161 0.0000
vt 0.5806 1.0000
vt 0.5484 0.0000
vt 0.5806 0.0000
vt 0.6452 1.0000
vt 0.6129 0.0000
vt 0.6452 0.0000
vt 0.7097 1.0000
vt 0.6774 0.0000
vt 0.7097 0.0000
vt 0.7742 1.0000
vt 0.7419 0.0000
vt 0.7742 0.0000
vt 0.8387 1.0000
vt 0.8065 0.0000
vt 0.8387 0.0000
vt 0.9032 1.0000
vt 0.8710 0.0000
vt 0.9032 0.0000
vt 0.9677 1.0000
vt 0.9355 0.0000
vt 0.9677 0.0000
vt 0.0323 1.0000
vt 0.0968 1.0000
vt 0.1613 1.0000
vt 0.2258 1.0000
vt 0.2903 1.0000
vt 0.3548 1.0000
vt 0.4194 1.0000
vt 0.4839 1.0000
vt 0.5484 1.0000
vt 0.6129 1.0000
vt 0.6774 1.0000
vt 0.7419 1.0000
vt 0.8065 1.0000
vt 0.8710 1.0000
vt 0.9355 1.0000
vt 0.0323 1.0000
vt 0.0000 0.0000
vt 0.0323 0.0000
vt 0.0968 1.0000
vt 0.0645 0.0000
vt 0.0968 0.0000
vt 0.1613 1.0000
vt 0.1290 0.0000
vt 0.1613 0.0000
vt 0.2258 1.0000
vt 0.1935 0.0000
vt 0.2258 0.0000
vt 0.2903 1.0000
vt 0.2581 0.0000
vt 0.2903 0.0000
vt 0.3548 1.0000
vt 0.3226 0.0000
vt 0.3548 0.0000
vt 0.4194 1.0000
vt 0.3871 0.0000
vt 0.4194 0.0000
vt 0.4839 1.0000
vt 0.4516 0.0000
vt 0.4839 0.0000
vt 0.5484 1.0000
vt 0.5161 0.0000
vt 0.5484 0.0000
vt 0.6129 1.0000
vt 0.5806 0.0000
vt 0.6129 0.0000
vt 0.6774 1.0000
vt 0.6452 0.0000
vt 0.6774 0.0000
vt 0.7419 1.0000
vt 0.7097 0.0000
vt 0.7419 0.0000
vt 0.8065 1.0000
vt 0.7742 0.0000
vt 0.8065 0.0000
vt 0.8710 1.0000
vt 0.8387 0.0000
vt 0.8710 0.0000
vt 0.9355 1.0000
vt 0.9032 0.0000
vt 0.9355 0.0000
vt 1.0000 1.0000
vt 0.9677 0.0000
vt 1.0000 0.0000
vt 0.0000 1.0000
vt 0.0645 1.0000
vt 0.1290 1.0000
vt 0.1935 1.0000
vt 0.2581 1.0000
vt 0.3226 1.0000
vt 0.3871 1.0000
vt 0.4516 1.0000
vt 0.5161 1.0000
vt 0.5806 1.0000
vt 0.6452 1.0000
vt 0.7097 1.0000
vt 0.7742 1.0000
vt 0.8387 1.0000
vt 0.9032 1.0000
vt 0.9677 1.0000
vn 0.0000 1.0000 0.0000
usemtl rigg1d.material
s off
f 3/1/1 34/2/1 2/3/1
f 5/4/1 36/5/1 4/6/1
f 7/7/1 38/8/1 6/9/1
f 9/10/1 40/11/1 8/12/1
f 11/13/1 42/14/1 10/15/1
f 13/16/1 44/17/1 12/18/1
f 15/19/1 46/20/1 14/21/1
f 17/22/1 48/23/1 16/24/1
f 19/25/1 50/26/1 18/27/1
f 21/28/1 52/29/1 20/30/1
f 23/31/1 54/32/1 22/33/1
f 25/34/1 56/35/1 24/36/1
f 27/37/1 58/38/1 26/39/1
f 29/40/1 60/41/1 28/42/1
f 31/43/1 62/44/1 30/45/1
f 3/1/1 35/46/1 34/2/1
f 5/4/1 37/47/1 36/5/1
f 7/7/1 39/48/1 38/8/1
f 9/10/1 41/49/1 40/11/1
f 11/13/1 43/50/1 42/14/1
f 13/16/1 45/51/1 44/17/1
f 15/19/1 47/52/1 46/20/1
f 17/22/1 49/53/1 48/23/1
f 19/25/1 51/54/1 50/26/1
f 21/28/1 53/55/1 52/29/1
f 23/31/1 55/56/1 54/32/1
f 25/34/1 57/57/1 56/35/1
f 27/37/1 59/58/1 58/38/1
f 29/40/1 61/59/1 60/41/1
f 31/43/1 63/60/1 62/44/1
usemtl rigg1d.materialopt
f 2/61/1 33/62/1 1/63/1
f 4/64/1 35/65/1 3/66/1
f 6/67/1 37/68/1 5/69/1
f 8/70/1 39/71/1 7/72/1
f 10/73/1 41/74/1 9/75/1
f 12/76/1 43/77/1 11/78/1
f 14/79/1 45/80/1 13/81/1
f 16/82/1 47/83/1 15/84/1
f 18/85/1 49/86/1 17/87/1
f 20/88/1 51/89/1 19/90/1
f 22/91/1 53/92/1 21/93/1
f 24/94/1 55/95/1 23/96/1
f 26/97/1 57/98/1 25/99/1
f 28/100/1 59/101/1 27/102/1
f 30/103/1 61/104/1 29/105/1
f 32/106/1 63/107/1 31/108/1
f 2/61/1 34/109/1 33/62/1
f 4/64/1 36/110/1 35/65/1
f 6/67/1 38/111/1 37/68/1
f 8/70/1 40/112/1 39/71/1
f 10/73/1 42/113/1 41/74/1
f 12/76/1 44/114/1 43/77/1
f 14/79/1 46/115/1 45/80/1
f 16/82/1 48/116/1 47/83/1
f 18/85/1 50/117/1 49/86/1
f 20/88/1 52/118/1 51/89/1
f 22/91/1 54/119/1 53/92/1
f 24/94/1 56/120/1 55/95/1
f 26/97/1 58/121/1 57/98/1
f 28/100/1 60/122/1 59/101/1
f 30/103/1 62/123/1 61/104/1
f 32/106/1 64/124/1 63/107/1
