# Blender v2.78 (sub 0) OBJ File: 'sceno.blend'
# www.blender.org
mtllib sceno.mtl
v 1.018941 0.078602 2.734899
v 1.018941 4.811569 2.734899
v 1.018941 0.078602 0.734899
v 1.018941 4.811569 0.734899
v 3.018941 0.078602 2.734899
v 3.018941 4.811569 2.734899
v 3.018941 0.078602 0.734899
v 3.018941 4.811569 0.734899
vn -1.0000 0.0000 0.0000
vn 0.0000 0.0000 -1.0000
vn 1.0000 0.0000 0.0000
vn 0.0000 0.0000 1.0000
vn 0.0000 -1.0000 0.0000
vn 0.0000 1.0000 0.0000
usemtl None
s off
f 2//1 3//1 1//1
f 4//2 7//2 3//2
f 8//3 5//3 7//3
f 6//4 1//4 5//4
f 7//5 1//5 3//5
f 4//6 6//6 8//6
f 2//1 4//1 3//1
f 4//2 8//2 7//2
f 8//3 6//3 5//3
f 6//4 2//4 1//4
f 7//5 5//5 1//5
f 4//6 2//6 6//6
v -1.484076 2.318375 0.896217
v -0.760469 2.871156 1.421942
v -1.760464 2.871156 1.746866
v -2.378502 2.871160 0.896217
v -1.760464 2.871156 0.045568
v -0.760469 2.871156 0.370492
v -1.207688 3.765595 1.746866
v -2.207683 3.765595 1.421942
v -2.207683 3.765595 0.370492
v -1.207688 3.765595 0.045568
v -0.589650 3.765591 0.896217
v -1.484076 4.318376 0.896217
v -1.646532 2.467721 1.396212
v -1.058753 2.467721 1.205228
v -1.221207 2.792638 1.705229
v -0.633428 2.792639 0.896217
v -1.058753 2.467721 0.587206
v -2.009806 2.467724 0.896217
v -2.172266 2.792639 1.396214
v -1.646532 2.467721 0.396222
v -2.172266 2.792639 0.396220
v -1.221207 2.792638 0.087205
v -0.533018 3.318375 1.205230
v -0.533018 3.318375 0.587204
v -1.484076 3.318375 1.896217
v -0.896290 3.318375 1.705234
v -2.435134 3.318375 1.205230
v -2.071862 3.318375 1.705234
v -2.071862 3.318375 0.087200
v -2.435134 3.318375 0.587204
v -0.896290 3.318375 0.087200
v -1.484076 3.318375 -0.103783
v -0.795887 3.844111 1.396214
v -1.746945 3.844113 1.705229
v -2.334724 3.844111 0.896217
v -1.746945 3.844113 0.087205
v -0.795887 3.844111 0.396220
v -1.321620 4.169030 1.396212
v -0.958346 4.169027 0.896217
v -1.909399 4.169030 1.205228
v -1.909399 4.169030 0.587206
v -1.321620 4.169030 0.396222
vn 0.1024 -0.9435 0.3151
vn 0.7002 -0.6617 0.2680
vn -0.2680 -0.9435 0.1947
vn -0.2680 -0.9435 -0.1947
vn 0.1024 -0.9435 -0.3151
vn 0.9050 -0.3304 0.2680
vn 0.0247 -0.3304 0.9435
vn -0.8897 -0.3304 0.3151
vn -0.5746 -0.3304 -0.7488
vn 0.5346 -0.3304 -0.7779
vn 0.8026 -0.1256 0.5831
vn -0.3066 -0.1256 0.9435
vn -0.9921 -0.1256 0.0000
vn -0.3066 -0.1256 -0.9435
vn 0.8026 -0.1256 -0.5831
vn 0.4089 0.6617 0.6284
vn -0.4713 0.6617 0.5831
vn -0.7002 0.6617 -0.2680
vn 0.0385 0.6617 -0.7488
vn 0.7240 0.6617 -0.1947
vn 0.2680 0.9435 -0.1947
vn 0.4911 0.7947 -0.3568
vn 0.4089 0.6617 -0.6284
vn -0.1024 0.9435 -0.3151
vn -0.1876 0.7947 -0.5773
vn -0.4713 0.6617 -0.5831
vn -0.3313 0.9435 0.0000
vn -0.6071 0.7947 0.0000
vn -0.7002 0.6617 0.2680
vn -0.1024 0.9435 0.3151
vn -0.1876 0.7947 0.5773
vn 0.0385 0.6617 0.7488
vn 0.2680 0.9435 0.1947
vn 0.4911 0.7947 0.3568
vn 0.7240 0.6617 0.1947
vn 0.8897 0.3304 -0.3151
vn 0.7947 0.1876 -0.5773
vn 0.5746 0.3304 -0.7488
vn -0.0247 0.3304 -0.9435
vn -0.3035 0.1876 -0.9342
vn -0.5346 0.3304 -0.7779
vn -0.9050 0.3304 -0.2680
vn -0.9822 0.1876 0.0000
vn -0.9050 0.3304 0.2680
vn -0.5346 0.3304 0.7779
vn -0.3035 0.1876 0.9342
vn -0.0247 0.3304 0.9435
vn 0.5746 0.3304 0.7488
vn 0.7947 0.1876 0.5773
vn 0.8897 0.3304 0.3151
vn 0.3066 0.1256 -0.9435
vn 0.3035 -0.1876 -0.9342
vn 0.0247 -0.3304 -0.9435
vn -0.8026 0.1256 -0.5831
vn -0.7947 -0.1876 -0.5773
vn -0.8897 -0.3304 -0.3151
vn -0.8026 0.1256 0.5831
vn -0.7947 -0.1876 0.5773
vn -0.5746 -0.3304 0.7488
vn 0.3066 0.1256 0.9435
vn 0.3035 -0.1876 0.9342
vn 0.5346 -0.3304 0.7779
vn 0.9921 0.1256 0.0000
vn 0.9822 -0.1876 0.0000
vn 0.9050 -0.3304 -0.2680
vn 0.4713 -0.6617 -0.5831
vn 0.1876 -0.7947 -0.5773
vn -0.0385 -0.6617 -0.7488
vn -0.4089 -0.6617 -0.6284
vn -0.4911 -0.7947 -0.3568
vn -0.7240 -0.6617 -0.1947
vn -0.7240 -0.6617 0.1947
vn -0.4911 -0.7947 0.3568
vn -0.4089 -0.6617 0.6284
vn 0.7002 -0.6617 -0.2680
vn 0.6071 -0.7947 0.0000
vn 0.3313 -0.9435 0.0000
vn -0.0385 -0.6617 0.7488
vn 0.1876 -0.7947 0.5773
vn 0.4713 -0.6617 0.5831
usemtl None
s off
f 9//7 22//7 21//7
f 10//8 22//8 24//8
f 9//9 21//9 26//9
f 9//10 26//10 28//10
f 9//11 28//11 25//11
f 10//12 24//12 31//12
f 11//13 23//13 33//13
f 12//14 27//14 35//14
f 13//15 29//15 37//15
f 14//16 30//16 39//16
f 10//17 31//17 34//17
f 11//18 33//18 36//18
f 12//19 35//19 38//19
f 13//20 37//20 40//20
f 14//21 39//21 32//21
f 15//22 41//22 46//22
f 16//23 42//23 48//23
f 17//24 43//24 49//24
f 18//25 44//25 50//25
f 19//26 45//26 47//26
f 47//27 50//27 20//27
f 47//28 45//28 50//28
f 45//29 18//29 50//29
f 50//30 49//30 20//30
f 50//31 44//31 49//31
f 44//32 17//32 49//32
f 49//33 48//33 20//33
f 49//34 43//34 48//34
f 43//35 16//35 48//35
f 48//36 46//36 20//36
f 48//37 42//37 46//37
f 42//38 15//38 46//38
f 46//39 47//39 20//39
f 46//40 41//40 47//40
f 41//41 19//41 47//41
f 32//42 45//42 19//42
f 32//43 39//43 45//43
f 39//44 18//44 45//44
f 40//45 44//45 18//45
f 40//46 37//46 44//46
f 37//47 17//47 44//47
f 38//48 43//48 17//48
f 38//49 35//49 43//49
f 35//50 16//50 43//50
f 36//51 42//51 16//51
f 36//52 33//52 42//52
f 33//53 15//53 42//53
f 34//54 41//54 15//54
f 34//55 31//55 41//55
f 31//56 19//56 41//56
f 39//57 40//57 18//57
f 39//58 30//58 40//58
f 30//59 13//59 40//59
f 37//60 38//60 17//60
f 37//61 29//61 38//61
f 29//62 12//62 38//62
f 35//63 36//63 16//63
f 35//64 27//64 36//64
f 27//65 11//65 36//65
f 33//66 34//66 15//66
f 33//67 23//67 34//67
f 23//68 10//68 34//68
f 31//69 32//69 19//69
f 31//70 24//70 32//70
f 24//71 14//71 32//71
f 25//72 30//72 14//72
f 25//73 28//73 30//73
f 28//74 13//74 30//74
f 28//75 29//75 13//75
f 28//76 26//76 29//76
f 26//77 12//77 29//77
f 26//78 27//78 12//78
f 26//79 21//79 27//79
f 21//80 11//80 27//80
f 24//81 25//81 14//81
f 24//82 22//82 25//82
f 22//83 9//83 25//83
f 21//84 23//84 11//84
f 21//85 22//85 23//85
f 22//86 10//86 23//86
v -1.628911 -0.024476 -0.049936
v -1.628911 2.412020 -0.049936
v -1.916415 -0.024476 -0.030722
v -1.916415 2.412020 -0.030722
v -2.192871 -0.024476 0.026184
v -2.192871 2.412020 0.026184
v -2.447654 -0.024476 0.118594
v -2.447654 2.412020 0.118594
v -2.670973 -0.024476 0.242957
v -2.670973 2.412020 0.242957
v -2.854246 -0.024476 0.394494
v -2.854246 2.412020 0.394494
v -2.990430 -0.024476 0.567380
v -2.990430 2.412020 0.567380
v -3.074292 -0.024476 0.754973
v -3.074292 2.412020 0.754973
v -3.102609 -0.024476 0.950064
v -3.102609 2.412020 0.950064
v -3.074292 -0.024476 1.145154
v -3.074292 2.412020 1.145154
v -2.990430 -0.024476 1.332747
v -2.990430 2.412020 1.332747
v -2.854246 -0.024476 1.505634
v -2.854246 2.412020 1.505634
v -2.670973 -0.024476 1.657171
v -2.670973 2.412020 1.657171
v -2.447654 -0.024476 1.781533
v -2.447654 2.412020 1.781533
v -2.192871 -0.024476 1.873943
v -2.192871 2.412020 1.873943
v -1.916415 -0.024476 1.930849
v -1.916415 2.412020 1.930849
v -1.628911 -0.024476 1.950064
v -1.628911 2.412020 1.950064
v -1.341406 -0.024476 1.930849
v -1.341406 2.412020 1.930849
v -1.064951 -0.024476 1.873943
v -1.064951 2.412020 1.873943
v -0.810168 -0.024476 1.781533
v -0.810168 2.412020 1.781533
v -0.586849 -0.024476 1.657170
v -0.586849 2.412020 1.657170
v -0.403576 -0.024476 1.505633
v -0.403576 2.412020 1.505633
v -0.267391 -0.024476 1.332746
v -0.267391 2.412020 1.332746
v -0.183530 -0.024476 1.145153
v -0.183530 2.412020 1.145153
v -0.155213 -0.024476 0.950063
v -0.155213 2.412020 0.950063
v -0.183530 -0.024476 0.754972
v -0.183530 2.412020 0.754972
v -0.267393 -0.024476 0.567379
v -0.267393 2.412020 0.567379
v -0.403577 -0.024476 0.394492
v -0.403577 2.412020 0.394492
v -0.586851 -0.024476 0.242956
v -0.586851 2.412020 0.242956
v -0.810170 -0.024476 0.118593
v -0.810170 2.412020 0.118593
v -1.064953 -0.024476 0.026184
v -1.064953 2.412020 0.026184
v -1.341409 -0.024476 -0.030722
v -1.341409 2.412020 -0.030722
vn 0.0667 0.0000 0.9978
vn 0.2016 0.0000 0.9795
vn 0.3410 0.0000 0.9401
vn 0.4865 0.0000 0.8737
vn 0.6372 0.0000 0.7707
vn 0.7856 0.0000 0.6188
vn 0.9129 0.0000 0.4081
vn 0.9896 0.0000 0.1436
vn 0.9896 0.0000 -0.1436
vn 0.9129 0.0000 -0.4081
vn 0.7856 0.0000 -0.6188
vn 0.6372 0.0000 -0.7707
vn 0.4865 0.0000 -0.8737
vn 0.3410 0.0000 -0.9401
vn 0.2016 0.0000 -0.9795
vn 0.0667 0.0000 -0.9978
vn -0.0667 0.0000 -0.9978
vn -0.2016 0.0000 -0.9795
vn -0.3410 0.0000 -0.9401
vn -0.4865 0.0000 -0.8737
vn -0.6372 0.0000 -0.7707
vn -0.7856 0.0000 -0.6188
vn -0.9129 0.0000 -0.4081
vn -0.9896 0.0000 -0.1436
vn -0.9896 0.0000 0.1436
vn -0.9129 0.0000 0.4081
vn -0.7856 0.0000 0.6188
vn -0.6372 0.0000 0.7707
vn -0.4865 0.0000 0.8737
vn -0.3410 0.0000 0.9401
vn 0.0000 -1.0000 0.0000
vn -0.2016 0.0000 0.9795
vn -0.0667 0.0000 0.9978
vn 0.0000 1.0000 -0.0000
usemtl None
s off
f 52//87 53//87 51//87
f 54//88 55//88 53//88
f 56//89 57//89 55//89
f 58//90 59//90 57//90
f 60//91 61//91 59//91
f 62//92 63//92 61//92
f 64//93 65//93 63//93
f 66//94 67//94 65//94
f 68//95 69//95 67//95
f 70//96 71//96 69//96
f 72//97 73//97 71//97
f 74//98 75//98 73//98
f 76//99 77//99 75//99
f 78//100 79//100 77//100
f 80//101 81//101 79//101
f 82//102 83//102 81//102
f 84//103 85//103 83//103
f 86//104 87//104 85//104
f 88//105 89//105 87//105
f 90//106 91//106 89//106
f 92//107 93//107 91//107
f 94//108 95//108 93//108
f 96//109 97//109 95//109
f 98//110 99//110 97//110
f 100//111 101//111 99//111
f 102//112 103//112 101//112
f 104//113 105//113 103//113
f 106//114 107//114 105//114
f 108//115 109//115 107//115
f 110//116 111//116 109//116
f 76//117 58//117 78//117
f 112//118 113//118 111//118
f 114//119 51//119 113//119
f 89//120 111//120 87//120
f 52//87 54//87 53//87
f 54//88 56//88 55//88
f 56//89 58//89 57//89
f 58//90 60//90 59//90
f 60//91 62//91 61//91
f 62//92 64//92 63//92
f 64//93 66//93 65//93
f 66//94 68//94 67//94
f 68//95 70//95 69//95
f 70//96 72//96 71//96
f 72//97 74//97 73//97
f 74//98 76//98 75//98
f 76//99 78//99 77//99
f 78//100 80//100 79//100
f 80//101 82//101 81//101
f 82//102 84//102 83//102
f 84//103 86//103 85//103
f 86//104 88//104 87//104
f 88//105 90//105 89//105
f 90//106 92//106 91//106
f 92//107 94//107 93//107
f 94//108 96//108 95//108
f 96//109 98//109 97//109
f 98//110 100//110 99//110
f 100//111 102//111 101//111
f 102//112 104//112 103//112
f 104//113 106//113 105//113
f 106//114 108//114 107//114
f 108//115 110//115 109//115
f 110//116 112//116 111//116
f 56//117 54//117 82//117
f 52//117 114//117 86//117
f 112//117 110//117 88//117
f 108//117 106//117 92//117
f 104//117 102//117 98//117
f 100//117 98//117 102//117
f 96//117 94//117 104//117
f 92//117 90//117 108//117
f 88//117 86//117 114//117
f 84//117 82//117 54//117
f 80//117 78//117 56//117
f 76//117 74//117 60//117
f 72//117 70//117 66//117
f 68//117 66//117 70//117
f 64//117 62//117 72//117
f 60//117 58//117 76//117
f 54//117 52//117 84//117
f 110//117 90//117 88//117
f 104//117 98//117 96//117
f 94//117 106//117 104//117
f 86//117 84//117 52//117
f 78//117 58//117 56//117
f 72//117 66//117 64//117
f 62//117 74//117 72//117
f 114//117 112//117 88//117
f 94//117 92//117 106//117
f 82//117 80//117 56//117
f 62//117 60//117 74//117
f 108//117 90//117 110//117
f 112//118 114//118 113//118
f 114//119 52//119 51//119
f 113//120 51//120 83//120
f 53//120 55//120 81//120
f 57//120 59//120 75//120
f 61//120 63//120 73//120
f 65//120 67//120 69//120
f 69//120 71//120 65//120
f 73//120 75//120 59//120
f 77//120 79//120 57//120
f 81//120 83//120 51//120
f 85//120 87//120 113//120
f 89//120 91//120 107//120
f 93//120 95//120 105//120
f 97//120 99//120 101//120
f 101//120 103//120 97//120
f 105//120 107//120 91//120
f 109//120 111//120 89//120
f 51//120 53//120 81//120
f 59//120 61//120 73//120
f 65//120 71//120 63//120
f 75//120 77//120 57//120
f 83//120 85//120 113//120
f 91//120 93//120 105//120
f 97//120 103//120 95//120
f 107//120 109//120 89//120
f 55//120 79//120 81//120
f 71//120 73//120 63//120
f 87//120 111//120 113//120
f 103//120 105//120 95//120
f 57//120 79//120 55//120
v 3.767305 -0.161578 -2.253354
v 3.767305 -0.161578 -0.253354
v 1.767305 -0.161578 -0.253354
v 1.767305 -0.161578 -2.253354
v 3.767305 1.838422 -2.253353
v 3.767304 1.838422 -0.253353
v 1.767305 1.838422 -0.253354
v 1.767305 1.838422 -2.253354
vn 0.0000 -1.0000 0.0000
vn 0.0000 1.0000 0.0000
vn 1.0000 -0.0000 0.0000
vn -0.0000 -0.0000 1.0000
vn -1.0000 -0.0000 -0.0000
vn 0.0000 0.0000 -1.0000
usemtl green
s off
f 115//121 117//121 118//121
f 122//122 120//122 119//122
f 119//123 116//123 115//123
f 120//124 117//124 116//124
f 121//125 118//125 117//125
f 115//126 122//126 119//126
f 115//121 116//121 117//121
f 122//122 121//122 120//122
f 119//123 120//123 116//123
f 120//124 121//124 117//124
f 121//125 122//125 118//125
f 115//126 118//126 122//126
