# Blender v2.78 (sub 0) OBJ File: 'sceno.blend'
# www.blender.org
mtllib sceno.mtl
o Icosphere
v -1.613300 2.318375 0.947907
v -0.889693 2.871156 1.473632
v -1.889688 2.871156 1.798556
v -2.507727 2.871160 0.947907
v -1.889688 2.871156 0.097258
v -0.889693 2.871156 0.422181
v -1.336912 3.765595 1.798556
v -2.336908 3.765595 1.473632
v -2.336908 3.765595 0.422181
v -1.336912 3.765595 0.097258
v -0.718874 3.765591 0.947907
v -1.613300 4.318376 0.947907
v -1.775756 2.467721 1.447902
v -1.187978 2.467721 1.256918
v -1.350432 2.792638 1.756918
v -0.762653 2.792639 0.947907
v -1.187978 2.467721 0.638895
v -2.139030 2.467724 0.947907
v -2.301490 2.792639 1.447904
v -1.775756 2.467721 0.447912
v -2.301490 2.792639 0.447910
v -1.350432 2.792638 0.138895
v -0.662243 3.318375 1.256919
v -0.662243 3.318375 0.638894
v -1.613300 3.318375 1.947907
v -1.025515 3.318375 1.756923
v -2.564358 3.318375 1.256919
v -2.201086 3.318375 1.756923
v -2.201086 3.318375 0.138890
v -2.564358 3.318375 0.638894
v -1.025515 3.318375 0.138890
v -1.613300 3.318375 -0.052093
v -0.925111 3.844111 1.447904
v -1.876169 3.844113 1.756918
v -2.463948 3.844111 0.947907
v -1.876169 3.844113 0.138895
v -0.925111 3.844111 0.447910
v -1.450845 4.169030 1.447902
v -1.087571 4.169027 0.947907
v -2.038623 4.169030 1.256918
v -2.038623 4.169030 0.638895
v -1.450845 4.169030 0.447912
vn 0.1024 -0.9435 0.3151
vn 0.7002 -0.6617 0.2680
vn -0.2680 -0.9435 0.1947
vn -0.2680 -0.9435 -0.1947
vn 0.1024 -0.9435 -0.3151
vn 0.9050 -0.3304 0.2680
vn 0.0247 -0.3304 0.9435
vn -0.8897 -0.3304 0.3151
vn -0.5746 -0.3304 -0.7488
vn 0.5346 -0.3304 -0.7779
vn 0.8026 -0.1256 0.5831
vn -0.3066 -0.1256 0.9435
vn -0.9921 -0.1256 0.0000
vn -0.3066 -0.1256 -0.9435
vn 0.8026 -0.1256 -0.5831
vn 0.4089 0.6617 0.6284
vn -0.4713 0.6617 0.5831
vn -0.7002 0.6617 -0.2680
vn 0.0385 0.6617 -0.7488
vn 0.7240 0.6617 -0.1947
vn 0.2680 0.9435 -0.1947
vn 0.4911 0.7947 -0.3568
vn 0.4089 0.6617 -0.6284
vn -0.1024 0.9435 -0.3151
vn -0.1876 0.7947 -0.5773
vn -0.4713 0.6617 -0.5831
vn -0.3313 0.9435 0.0000
vn -0.6071 0.7947 0.0000
vn -0.7002 0.6617 0.2680
vn -0.1024 0.9435 0.3151
vn -0.1876 0.7947 0.5773
vn 0.0385 0.6617 0.7488
vn 0.2680 0.9435 0.1947
vn 0.4911 0.7947 0.3568
vn 0.7240 0.6617 0.1947
vn 0.8897 0.3304 -0.3151
vn 0.7947 0.1876 -0.5773
vn 0.5746 0.3304 -0.7488
vn -0.0247 0.3304 -0.9435
vn -0.3035 0.1876 -0.9342
vn -0.5346 0.3304 -0.7779
vn -0.9050 0.3304 -0.2680
vn -0.9822 0.1876 0.0000
vn -0.9050 0.3304 0.2680
vn -0.5346 0.3304 0.7779
vn -0.3035 0.1876 0.9342
vn -0.0247 0.3304 0.9435
vn 0.5746 0.3304 0.7488
vn 0.7947 0.1876 0.5773
vn 0.8897 0.3304 0.3151
vn 0.3066 0.1256 -0.9435
vn 0.3035 -0.1876 -0.9342
vn 0.0247 -0.3304 -0.9435
vn -0.8026 0.1256 -0.5831
vn -0.7947 -0.1876 -0.5773
vn -0.8897 -0.3304 -0.3151
vn -0.8026 0.1256 0.5831
vn -0.7947 -0.1876 0.5773
vn -0.5746 -0.3304 0.7488
vn 0.3066 0.1256 0.9435
vn 0.3035 -0.1876 0.9342
vn 0.5346 -0.3304 0.7779
vn 0.9921 0.1256 0.0000
vn 0.9822 -0.1876 0.0000
vn 0.9050 -0.3304 -0.2680
vn 0.4713 -0.6617 -0.5831
vn 0.1876 -0.7947 -0.5773
vn -0.0385 -0.6617 -0.7488
vn -0.4089 -0.6617 -0.6284
vn -0.4911 -0.7947 -0.3568
vn -0.7240 -0.6617 -0.1947
vn -0.7240 -0.6617 0.1947
vn -0.4911 -0.7947 0.3568
vn -0.4089 -0.6617 0.6284
vn 0.7002 -0.6617 -0.2680
vn 0.6071 -0.7947 0.0000
vn 0.3313 -0.9435 0.0000
vn -0.0385 -0.6617 0.7488
vn 0.1876 -0.7947 0.5773
vn 0.4713 -0.6617 0.5831
usemtl None
s off
f 1//1 14//1 13//1
f 2//2 14//2 16//2
f 1//3 13//3 18//3
f 1//4 18//4 20//4
f 1//5 20//5 17//5
f 2//6 16//6 23//6
f 3//7 15//7 25//7
f 4//8 19//8 27//8
f 5//9 21//9 29//9
f 6//10 22//10 31//10
f 2//11 23//11 26//11
f 3//12 25//12 28//12
f 4//13 27//13 30//13
f 5//14 29//14 32//14
f 6//15 31//15 24//15
f 7//16 33//16 38//16
f 8//17 34//17 40//17
f 9//18 35//18 41//18
f 10//19 36//19 42//19
f 11//20 37//20 39//20
f 39//21 42//21 12//21
f 39//22 37//22 42//22
f 37//23 10//23 42//23
f 42//24 41//24 12//24
f 42//25 36//25 41//25
f 36//26 9//26 41//26
f 41//27 40//27 12//27
f 41//28 35//28 40//28
f 35//29 8//29 40//29
f 40//30 38//30 12//30
f 40//31 34//31 38//31
f 34//32 7//32 38//32
f 38//33 39//33 12//33
f 38//34 33//34 39//34
f 33//35 11//35 39//35
f 24//36 37//36 11//36
f 24//37 31//37 37//37
f 31//38 10//38 37//38
f 32//39 36//39 10//39
f 32//40 29//40 36//40
f 29//41 9//41 36//41
f 30//42 35//42 9//42
f 30//43 27//43 35//43
f 27//44 8//44 35//44
f 28//45 34//45 8//45
f 28//46 25//46 34//46
f 25//47 7//47 34//47
f 26//48 33//48 7//48
f 26//49 23//49 33//49
f 23//50 11//50 33//50
f 31//51 32//51 10//51
f 31//52 22//52 32//52
f 22//53 5//53 32//53
f 29//54 30//54 9//54
f 29//55 21//55 30//55
f 21//56 4//56 30//56
f 27//57 28//57 8//57
f 27//58 19//58 28//58
f 19//59 3//59 28//59
f 25//60 26//60 7//60
f 25//61 15//61 26//61
f 15//62 2//62 26//62
f 23//63 24//63 11//63
f 23//64 16//64 24//64
f 16//65 6//65 24//65
f 17//66 22//66 6//66
f 17//67 20//67 22//67
f 20//68 5//68 22//68
f 20//69 21//69 5//69
f 20//70 18//70 21//70
f 18//71 4//71 21//71
f 18//72 19//72 4//72
f 18//73 13//73 19//73
f 13//74 3//74 19//74
f 16//75 17//75 6//75
f 16//76 14//76 17//76
f 14//77 1//77 17//77
f 13//78 15//78 3//78
f 13//79 14//79 15//79
f 14//80 2//80 15//80
o Cylinder
v -1.628911 -0.024476 -0.049936
v -1.628911 2.412020 -0.049936
v -1.916415 -0.024476 -0.030722
v -1.916415 2.412020 -0.030722
v -2.192871 -0.024476 0.026184
v -2.192871 2.412020 0.026184
v -2.447654 -0.024476 0.118594
v -2.447654 2.412020 0.118594
v -2.670973 -0.024476 0.242957
v -2.670973 2.412020 0.242957
v -2.854246 -0.024476 0.394494
v -2.854246 2.412020 0.394494
v -2.990430 -0.024476 0.567380
v -2.990430 2.412020 0.567380
v -3.074292 -0.024476 0.754973
v -3.074292 2.412020 0.754973
v -3.102609 -0.024476 0.950064
v -3.102609 2.412020 0.950064
v -3.074292 -0.024476 1.145154
v -3.074292 2.412020 1.145154
v -2.990430 -0.024476 1.332747
v -2.990430 2.412020 1.332747
v -2.854246 -0.024476 1.505634
v -2.854246 2.412020 1.505634
v -2.670973 -0.024476 1.657171
v -2.670973 2.412020 1.657171
v -2.447654 -0.024476 1.781533
v -2.447654 2.412020 1.781533
v -2.192871 -0.024476 1.873943
v -2.192871 2.412020 1.873943
v -1.916415 -0.024476 1.930849
v -1.916415 2.412020 1.930849
v -1.628911 -0.024476 1.950064
v -1.628911 2.412020 1.950064
v -1.341406 -0.024476 1.930849
v -1.341406 2.412020 1.930849
v -1.064951 -0.024476 1.873943
v -1.064951 2.412020 1.873943
v -0.810168 -0.024476 1.781533
v -0.810168 2.412020 1.781533
v -0.586849 -0.024476 1.657170
v -0.586849 2.412020 1.657170
v -0.403576 -0.024476 1.505633
v -0.403576 2.412020 1.505633
v -0.267391 -0.024476 1.332746
v -0.267391 2.412020 1.332746
v -0.183530 -0.024476 1.145153
v -0.183530 2.412020 1.145153
v -0.155213 -0.024476 0.950063
v -0.155213 2.412020 0.950063
v -0.183530 -0.024476 0.754972
v -0.183530 2.412020 0.754972
v -0.267393 -0.024476 0.567379
v -0.267393 2.412020 0.567379
v -0.403577 -0.024476 0.394492
v -0.403577 2.412020 0.394492
v -0.586851 -0.024476 0.242956
v -0.586851 2.412020 0.242956
v -0.810170 -0.024476 0.118593
v -0.810170 2.412020 0.118593
v -1.064953 -0.024476 0.026184
v -1.064953 2.412020 0.026184
v -1.341409 -0.024476 -0.030722
v -1.341409 2.412020 -0.030722
vn 0.0667 0.0000 0.9978
vn 0.2016 0.0000 0.9795
vn 0.3410 0.0000 0.9401
vn 0.4865 0.0000 0.8737
vn 0.6372 0.0000 0.7707
vn 0.7856 0.0000 0.6188
vn 0.9129 0.0000 0.4081
vn 0.9896 0.0000 0.1436
vn 0.9896 0.0000 -0.1436
vn 0.9129 0.0000 -0.4081
vn 0.7856 0.0000 -0.6188
vn 0.6372 0.0000 -0.7707
vn 0.4865 0.0000 -0.8737
vn 0.3410 0.0000 -0.9401
vn 0.2016 0.0000 -0.9795
vn 0.0667 0.0000 -0.9978
vn -0.0667 0.0000 -0.9978
vn -0.2016 0.0000 -0.9795
vn -0.3410 0.0000 -0.9401
vn -0.4865 0.0000 -0.8737
vn -0.6372 0.0000 -0.7707
vn -0.7856 0.0000 -0.6188
vn -0.9129 0.0000 -0.4081
vn -0.9896 0.0000 -0.1436
vn -0.9896 0.0000 0.1436
vn -0.9129 0.0000 0.4081
vn -0.7856 0.0000 0.6188
vn -0.6372 0.0000 0.7707
vn -0.4865 0.0000 0.8737
vn -0.3410 0.0000 0.9401
vn 0.0000 -1.0000 0.0000
vn -0.2016 0.0000 0.9795
vn -0.0667 0.0000 0.9978
vn 0.0000 1.0000 -0.0000
usemtl None
s off
f 44//81 45//81 43//81
f 46//82 47//82 45//82
f 48//83 49//83 47//83
f 50//84 51//84 49//84
f 52//85 53//85 51//85
f 54//86 55//86 53//86
f 56//87 57//87 55//87
f 58//88 59//88 57//88
f 60//89 61//89 59//89
f 62//90 63//90 61//90
f 64//91 65//91 63//91
f 66//92 67//92 65//92
f 68//93 69//93 67//93
f 70//94 71//94 69//94
f 72//95 73//95 71//95
f 74//96 75//96 73//96
f 76//97 77//97 75//97
f 78//98 79//98 77//98
f 80//99 81//99 79//99
f 82//100 83//100 81//100
f 84//101 85//101 83//101
f 86//102 87//102 85//102
f 88//103 89//103 87//103
f 90//104 91//104 89//104
f 92//105 93//105 91//105
f 94//106 95//106 93//106
f 96//107 97//107 95//107
f 98//108 99//108 97//108
f 100//109 101//109 99//109
f 102//110 103//110 101//110
f 68//111 50//111 70//111
f 104//112 105//112 103//112
f 106//113 43//113 105//113
f 81//114 103//114 79//114
f 44//81 46//81 45//81
f 46//82 48//82 47//82
f 48//83 50//83 49//83
f 50//84 52//84 51//84
f 52//85 54//85 53//85
f 54//86 56//86 55//86
f 56//87 58//87 57//87
f 58//88 60//88 59//88
f 60//89 62//89 61//89
f 62//90 64//90 63//90
f 64//91 66//91 65//91
f 66//92 68//92 67//92
f 68//93 70//93 69//93
f 70//94 72//94 71//94
f 72//95 74//95 73//95
f 74//96 76//96 75//96
f 76//97 78//97 77//97
f 78//98 80//98 79//98
f 80//99 82//99 81//99
f 82//100 84//100 83//100
f 84//101 86//101 85//101
f 86//102 88//102 87//102
f 88//103 90//103 89//103
f 90//104 92//104 91//104
f 92//105 94//105 93//105
f 94//106 96//106 95//106
f 96//107 98//107 97//107
f 98//108 100//108 99//108
f 100//109 102//109 101//109
f 102//110 104//110 103//110
f 48//111 46//111 74//111
f 44//111 106//111 78//111
f 104//111 102//111 80//111
f 100//111 98//111 84//111
f 96//111 94//111 90//111
f 92//111 90//111 94//111
f 88//111 86//111 96//111
f 84//111 82//111 100//111
f 80//111 78//111 106//111
f 76//111 74//111 46//111
f 72//111 70//111 48//111
f 68//111 66//111 52//111
f 64//111 62//111 58//111
f 60//111 58//111 62//111
f 56//111 54//111 64//111
f 52//111 50//111 68//111
f 46//111 44//111 76//111
f 102//111 82//111 80//111
f 96//111 90//111 88//111
f 86//111 98//111 96//111
f 78//111 76//111 44//111
f 70//111 50//111 48//111
f 64//111 58//111 56//111
f 54//111 66//111 64//111
f 106//111 104//111 80//111
f 86//111 84//111 98//111
f 74//111 72//111 48//111
f 54//111 52//111 66//111
f 100//111 82//111 102//111
f 104//112 106//112 105//112
f 106//113 44//113 43//113
f 105//114 43//114 75//114
f 45//114 47//114 73//114
f 49//114 51//114 67//114
f 53//114 55//114 65//114
f 57//114 59//114 61//114
f 61//114 63//114 57//114
f 65//114 67//114 51//114
f 69//114 71//114 49//114
f 73//114 75//114 43//114
f 77//114 79//114 105//114
f 81//114 83//114 99//114
f 85//114 87//114 97//114
f 89//114 91//114 93//114
f 93//114 95//114 89//114
f 97//114 99//114 83//114
f 101//114 103//114 81//114
f 43//114 45//114 73//114
f 51//114 53//114 65//114
f 57//114 63//114 55//114
f 67//114 69//114 49//114
f 75//114 77//114 105//114
f 83//114 85//114 97//114
f 89//114 95//114 87//114
f 99//114 101//114 81//114
f 47//114 71//114 73//114
f 63//114 65//114 55//114
f 79//114 103//114 105//114
f 95//114 97//114 87//114
f 49//114 71//114 47//114
o Cube
v 7.360386 -0.161578 -0.276577
v 7.360386 -0.161578 1.723423
v 5.360386 -0.161578 1.723422
v 5.360387 -0.161578 -0.276578
v 7.360387 1.838422 -0.276577
v 7.360386 1.838422 1.723423
v 5.360386 1.838422 1.723422
v 5.360386 1.838422 -0.276578
vn 0.0000 -1.0000 0.0000
vn 0.0000 1.0000 0.0000
vn 1.0000 -0.0000 0.0000
vn -0.0000 -0.0000 1.0000
vn -1.0000 -0.0000 -0.0000
vn 0.0000 0.0000 -1.0000
usemtl green
s off
f 108//115 110//115 107//115
f 114//116 112//116 111//116
f 111//117 108//117 107//117
f 112//118 109//118 108//118
f 109//119 114//119 110//119
f 107//120 114//120 111//120
f 108//115 109//115 110//115
f 114//116 113//116 112//116
f 111//117 112//117 108//117
f 112//118 113//118 109//118
f 109//119 113//119 114//119
f 107//120 110//120 114//120
