# Blender v2.78 (sub 0) OBJ File: 'untitled.blend'
# www.blender.org
mtllib untitled.mtl
o Icosphere_Icosphere.001
v -6.229297 0.547965 -3.731936
v -5.505690 1.100746 -3.206210
v -6.505685 1.100745 -2.881286
v -7.123723 1.100749 -3.731936
v -6.505685 1.100745 -4.582585
v -5.505690 1.100746 -4.257661
v -5.952909 1.995185 -2.881286
v -6.952904 1.995185 -3.206210
v -6.952904 1.995185 -4.257661
v -5.952909 1.995185 -4.582585
v -5.334870 1.995181 -3.731936
v -6.229297 2.547965 -3.731936
v -6.391752 0.697311 -3.231940
v -5.803974 0.697311 -3.422924
v -5.966428 1.022228 -2.922924
v -5.378649 1.022229 -3.731936
v -5.803974 0.697311 -4.040947
v -6.755026 0.697313 -3.731936
v -6.917486 1.022229 -3.231939
v -6.391752 0.697311 -4.231931
v -6.917486 1.022229 -4.231933
v -5.966428 1.022228 -4.540947
v -5.278239 1.547965 -3.422923
v -5.278239 1.547965 -4.040948
v -6.229297 1.547965 -2.731936
v -5.641511 1.547965 -2.922919
v -7.180355 1.547965 -3.422923
v -6.817082 1.547965 -2.922919
v -6.817082 1.547965 -4.540952
v -7.180355 1.547965 -4.040948
v -5.641511 1.547965 -4.540952
v -6.229297 1.547965 -4.731936
v -5.541107 2.073701 -3.231939
v -6.492166 2.073703 -2.922924
v -7.079945 2.073701 -3.731936
v -6.492166 2.073703 -4.540947
v -5.541107 2.073701 -4.231933
v -6.066841 2.398620 -3.231940
v -5.703567 2.398617 -3.731936
v -6.654619 2.398619 -3.422924
v -6.654619 2.398619 -4.040947
v -6.066841 2.398620 -4.231931
vn 0.1024 -0.9435 0.3151
vn 0.7002 -0.6617 0.2680
vn -0.2680 -0.9435 0.1947
vn -0.2680 -0.9435 -0.1947
vn 0.1024 -0.9435 -0.3151
vn 0.9050 -0.3304 0.2680
vn 0.0247 -0.3304 0.9435
vn -0.8897 -0.3304 0.3151
vn -0.5746 -0.3304 -0.7488
vn 0.5346 -0.3304 -0.7779
vn 0.8026 -0.1256 0.5831
vn -0.3066 -0.1256 0.9435
vn -0.9921 -0.1256 0.0000
vn -0.3066 -0.1256 -0.9435
vn 0.8026 -0.1256 -0.5831
vn -0.4713 0.6617 0.5831
vn -0.7002 0.6617 -0.2680
vn 0.0385 0.6617 -0.7488
vn 0.7240 0.6617 -0.1947
vn 0.2680 0.9435 -0.1947
vn 0.4911 0.7947 -0.3568
vn 0.4089 0.6617 -0.6284
vn -0.1024 0.9435 -0.3151
vn -0.1876 0.7947 -0.5773
vn -0.4713 0.6617 -0.5831
vn -0.3313 0.9435 0.0000
vn -0.6071 0.7947 0.0000
vn -0.7002 0.6617 0.2680
vn -0.1024 0.9435 0.3151
vn -0.1876 0.7947 0.5773
vn 0.2680 0.9435 0.1947
vn 0.4911 0.7947 0.3568
vn 0.7240 0.6617 0.1947
vn 0.8897 0.3304 -0.3151
vn 0.7947 0.1876 -0.5773
vn 0.5746 0.3304 -0.7488
vn -0.0247 0.3304 -0.9435
vn -0.3035 0.1876 -0.9342
vn -0.5346 0.3304 -0.7779
vn -0.9050 0.3304 -0.2680
vn -0.9822 0.1876 0.0000
vn -0.9050 0.3304 0.2680
vn -0.5346 0.3304 0.7779
vn -0.3035 0.1876 0.9342
vn 0.7947 0.1876 0.5773
vn 0.8897 0.3304 0.3151
vn 0.3066 0.1256 -0.9435
vn 0.3035 -0.1876 -0.9342
vn 0.0247 -0.3304 -0.9435
vn -0.8026 0.1256 -0.5831
vn -0.7947 -0.1876 -0.5773
vn -0.8897 -0.3304 -0.3151
vn -0.8026 0.1256 0.5831
vn -0.7947 -0.1876 0.5773
vn -0.5746 -0.3304 0.7488
vn 0.3035 -0.1876 0.9342
vn 0.5346 -0.3304 0.7779
vn 0.9921 0.1256 0.0000
vn 0.9822 -0.1876 0.0000
vn 0.9050 -0.3304 -0.2680
vn 0.4713 -0.6617 -0.5831
vn 0.1876 -0.7947 -0.5773
vn -0.0385 -0.6617 -0.7488
vn -0.4089 -0.6617 -0.6284
vn -0.4911 -0.7947 -0.3568
vn -0.7240 -0.6617 -0.1947
vn -0.7240 -0.6617 0.1947
vn -0.4911 -0.7947 0.3568
vn -0.4089 -0.6617 0.6284
vn 0.7002 -0.6617 -0.2680
vn 0.6071 -0.7947 0.0000
vn 0.3313 -0.9435 0.0000
vn -0.0385 -0.6617 0.7488
vn 0.1876 -0.7947 0.5773
vn 0.4713 -0.6617 0.5831
vn 0.4089 0.6617 0.6284
vn 0.0385 0.6617 0.7488
vn -0.0247 0.3304 0.9435
vn 0.5746 0.3304 0.7488
vn 0.3066 0.1256 0.9435
usemtl Material.004
s off
f 1//1 14//1 13//1
f 2//2 14//2 16//2
f 1//3 13//3 18//3
f 1//4 18//4 20//4
f 1//5 20//5 17//5
f 2//6 16//6 23//6
f 3//7 15//7 25//7
f 4//8 19//8 27//8
f 5//9 21//9 29//9
f 6//10 22//10 31//10
f 2//11 23//11 26//11
f 3//12 25//12 28//12
f 4//13 27//13 30//13
f 5//14 29//14 32//14
f 6//15 31//15 24//15
f 8//16 34//16 40//16
f 9//17 35//17 41//17
f 10//18 36//18 42//18
f 11//19 37//19 39//19
f 39//20 42//20 12//20
f 39//21 37//21 42//21
f 37//22 10//22 42//22
f 42//23 41//23 12//23
f 42//24 36//24 41//24
f 36//25 9//25 41//25
f 41//26 40//26 12//26
f 41//27 35//27 40//27
f 35//28 8//28 40//28
f 40//29 38//29 12//29
f 40//30 34//30 38//30
f 38//31 39//31 12//31
f 38//32 33//32 39//32
f 33//33 11//33 39//33
f 24//34 37//34 11//34
f 24//35 31//35 37//35
f 31//36 10//36 37//36
f 32//37 36//37 10//37
f 32//38 29//38 36//38
f 29//39 9//39 36//39
f 30//40 35//40 9//40
f 30//41 27//41 35//41
f 27//42 8//42 35//42
f 28//43 34//43 8//43
f 28//44 25//44 34//44
f 26//45 23//45 33//45
f 23//46 11//46 33//46
f 31//47 32//47 10//47
f 31//48 22//48 32//48
f 22//49 5//49 32//49
f 29//50 30//50 9//50
f 29//51 21//51 30//51
f 21//52 4//52 30//52
f 27//53 28//53 8//53
f 27//54 19//54 28//54
f 19//55 3//55 28//55
f 25//56 15//56 26//56
f 15//57 2//57 26//57
f 23//58 24//58 11//58
f 23//59 16//59 24//59
f 16//60 6//60 24//60
f 17//61 22//61 6//61
f 17//62 20//62 22//62
f 20//63 5//63 22//63
f 20//64 21//64 5//64
f 20//65 18//65 21//65
f 18//66 4//66 21//66
f 18//67 19//67 4//67
f 18//68 13//68 19//68
f 13//69 3//69 19//69
f 16//70 17//70 6//70
f 16//71 14//71 17//71
f 14//72 1//72 17//72
f 13//73 15//73 3//73
f 13//74 14//74 15//74
f 14//75 2//75 15//75
usemtl Material.005
f 7//76 33//76 38//76
f 34//77 7//77 38//77
f 25//78 7//78 34//78
f 26//79 33//79 7//79
f 25//80 26//80 7//80
