# Blender v2.78 (sub 0) OBJ File: 'color-cube.blend'
# www.blender.org
mtllib color-cube.mtl
o Cube_Cube.001
v -0.500000 -0.500000 -0.500000
v -0.500000 -0.500000 0.500000
v -0.500000 0.500000 -0.500000
v -0.500000 0.500000 0.500000
v 0.500000 -0.500000 -0.500000
v 0.500000 -0.500000 0.500000
v 0.500000 0.500000 -0.500000
v 0.500000 0.500000 0.500000
vn 0.0000 0.0000 -1.0000
vn 0.0000 -0.0000 1.0000
vn -1.0000 0.0000 0.0000
vn 0.0000 1.0000 0.0000
vn 1.0000 0.0000 0.0000
vn 0.0000 -1.0000 -0.0000
usemtl Material.001
s off
f 3//1 7//1 5//1 1//1
usemtl Material.002
f 8//2 4//2 2//2 6//2
usemtl Material.003
f 1//3 2//3 4//3 3//3
f 3//4 4//4 8//4 7//4
f 7//5 8//5 6//5 5//5
f 5//6 6//6 2//6 1//6
